<?xml version="1.0" encoding="UTF-8"?>
<svg xmlns="http://www.w3.org/2000/svg" xmlns:xlink="http://www.w3.org/1999/xlink" width="109px" height="57px" viewBox="0 0 109 57" version="1.1">
<g id="surface1">
<path style=" stroke:none;fill-rule:nonzero;fill:rgb(84.313726%,20.392157%,70.19608%);fill-opacity:1;" d="M 80.875 18.925781 C 82.585938 18.925781 84.300781 18.925781 86.0625 18.925781 C 86.128906 20.539062 86.207031 22.164062 86.277344 23.824219 C 86.417969 23.824219 86.558594 23.824219 86.710938 23.824219 C 86.785156 23.726562 86.785156 23.726562 86.867188 23.625 C 87.542969 22.984375 88.457031 22.777344 89.738281 22.570312 C 91.75 22.269531 93.429688 22.5625 95.355469 22.914062 C 95.355469 22.988281 95.355469 23.0625 95.355469 23.140625 C 95.484375 23.152344 95.605469 23.160156 95.742188 23.175781 C 96.6875 23.335938 97.195312 23.746094 97.734375 24.167969 C 98.597656 25.214844 98.707031 26.214844 98.652344 27.339844 C 98.652344 27.484375 98.648438 27.628906 98.640625 27.78125 C 98.632812 28.132812 98.613281 28.492188 98.601562 28.84375 C 98.726562 28.851562 98.851562 28.867188 98.980469 28.878906 C 100.003906 28.988281 100.816406 29.113281 101.707031 29.410156 C 101.882812 29.472656 102.058594 29.53125 102.238281 29.589844 C 102.613281 29.714844 102.984375 29.851562 103.355469 29.980469 C 103.355469 30.058594 103.355469 30.132812 103.355469 30.207031 C 103.492188 30.207031 103.636719 30.207031 103.789062 30.207031 C 103.789062 30.285156 103.789062 30.359375 103.789062 30.4375 C 103.933594 30.4375 104.070312 30.4375 104.21875 30.4375 C 104.363281 30.625 104.507812 30.808594 104.648438 31.003906 C 104.792969 31.003906 104.9375 31.003906 105.085938 31.003906 C 105.261719 31.175781 105.425781 31.347656 105.597656 31.519531 C 105.691406 31.617188 105.789062 31.710938 105.886719 31.808594 C 107.011719 33.179688 106.964844 34.859375 106.023438 36.25 C 105.539062 36.820312 104.96875 37.363281 104.21875 37.847656 C 104.074219 37.847656 103.933594 37.847656 103.789062 37.847656 C 103.789062 37.925781 103.789062 38 103.789062 38.074219 C 103.644531 38.074219 103.507812 38.074219 103.355469 38.074219 C 103.355469 38.152344 103.355469 38.222656 103.355469 38.300781 C 103.210938 38.300781 103.066406 38.300781 102.917969 38.300781 C 102.917969 38.378906 102.917969 38.453125 102.917969 38.527344 C 100.230469 39.753906 96.910156 40.054688 93.492188 40.035156 C 93.242188 40.035156 92.988281 40.035156 92.726562 40.035156 C 91.46875 40.03125 90.21875 40.011719 88.964844 39.957031 C 86.980469 39.886719 85.003906 39.871094 83.023438 39.851562 C 81.847656 39.839844 80.675781 39.828125 79.5 39.8125 C 79.140625 39.8125 79.140625 39.8125 78.765625 39.808594 C 74.71875 39.773438 70.683594 39.707031 66.644531 39.640625 C 65.6875 39.628906 64.734375 39.613281 63.773438 39.601562 C 58.851562 39.53125 53.929688 39.453125 49.007812 39.328125 C 48.730469 39.316406 48.730469 39.316406 48.441406 39.3125 C 46.34375 39.261719 44.257812 39.191406 42.160156 39.105469 C 41.984375 39.09375 41.804688 39.085938 41.621094 39.082031 C 41.226562 39.058594 40.839844 39.019531 40.445312 38.988281 C 40.375 38.914062 40.304688 38.835938 40.230469 38.761719 C 40.945312 38.613281 41.652344 38.46875 42.371094 38.324219 C 42.570312 38.289062 42.761719 38.242188 42.96875 38.203125 C 44.101562 37.972656 45.230469 37.769531 46.394531 37.597656 C 46.976562 37.503906 46.976562 37.503906 47.660156 37.339844 C 48.417969 37.175781 49.183594 37.027344 49.960938 36.894531 C 50.167969 36.859375 50.167969 36.859375 50.375 36.820312 C 50.964844 36.71875 51.546875 36.617188 52.125 36.519531 C 52.5625 36.441406 52.992188 36.371094 53.421875 36.292969 C 53.671875 36.25 53.925781 36.210938 54.191406 36.164062 C 54.957031 36.019531 55.699219 35.851562 56.445312 35.679688 C 56.882812 35.597656 57.320312 35.519531 57.757812 35.4375 C 58.007812 35.398438 58.257812 35.351562 58.511719 35.304688 C 58.90625 35.234375 58.90625 35.234375 59.3125 35.160156 C 61.792969 34.714844 64.261719 34.246094 66.71875 33.761719 C 66.945312 33.714844 67.171875 33.667969 67.40625 33.621094 C 67.707031 33.566406 67.707031 33.566406 68.019531 33.5 C 68.476562 33.414062 68.933594 33.34375 69.417969 33.292969 C 69.203125 33.257812 68.996094 33.234375 68.773438 33.210938 C 67.042969 32.996094 65.617188 32.761719 64.222656 32.144531 C 64.101562 32.09375 63.976562 32.042969 63.851562 31.988281 C 62.957031 31.566406 62.382812 31.050781 62.0625 30.4375 C 62.0625 30.179688 62.0625 29.910156 62.0625 29.640625 C 63.847656 29.640625 65.628906 29.640625 67.46875 29.640625 C 67.683594 30.089844 67.683594 30.089844 67.902344 30.550781 C 68.046875 30.550781 68.191406 30.550781 68.332031 30.550781 C 68.332031 30.628906 68.332031 30.703125 68.332031 30.78125 C 69.160156 30.921875 69.957031 30.90625 70.824219 30.90625 C 71.105469 30.90625 71.386719 30.90625 71.679688 30.90625 C 72.515625 30.898438 72.515625 30.898438 73.308594 30.78125 C 73.511719 30.453125 73.542969 30.246094 73.539062 29.902344 C 73.535156 29.8125 73.535156 29.714844 73.53125 29.621094 C 73.53125 29.558594 73.53125 29.484375 73.519531 29.410156 C 72.289062 29.214844 71.0625 29.0625 69.796875 28.949219 C 67.464844 28.757812 64.9375 28.484375 63.363281 27.46875 C 62.421875 26.726562 62.285156 25.953125 62.496094 25.078125 C 62.890625 24.214844 63.917969 23.628906 65.304688 23.140625 C 68.300781 22.390625 71.226562 22.210938 74.386719 22.804688 C 74.902344 22.90625 75.40625 23.015625 75.898438 23.140625 C 75.898438 23.214844 75.898438 23.296875 75.898438 23.375 C 76.054688 23.386719 76.214844 23.414062 76.371094 23.433594 C 77.371094 23.703125 77.824219 24.167969 78.34375 24.671875 C 78.496094 24.964844 78.496094 24.964844 78.496094 25.878906 C 76.925781 25.878906 75.359375 25.878906 73.738281 25.878906 C 73.53125 25.652344 73.308594 25.425781 73.085938 25.195312 C 72.308594 24.808594 71.679688 24.746094 70.632812 24.714844 C 69.851562 24.738281 69.277344 24.816406 68.554688 24.964844 C 68.332031 25.003906 68.121094 25.039062 67.902344 25.078125 C 67.902344 25.417969 67.902344 25.753906 67.902344 26.105469 C 69.175781 26.367188 70.40625 26.5 71.753906 26.617188 C 73.917969 26.792969 76.394531 27 78.0625 27.816406 C 79.070312 28.601562 79.277344 29.386719 79.140625 30.324219 C 78.917969 30.832031 78.617188 31.253906 78.0625 31.691406 C 78.226562 31.660156 78.394531 31.621094 78.566406 31.59375 C 78.785156 31.550781 78.996094 31.511719 79.222656 31.46875 C 79.441406 31.421875 79.652344 31.378906 79.878906 31.339844 C 80.441406 31.230469 80.441406 31.230469 80.875 31.230469 C 80.875 27.167969 80.875 23.109375 80.875 18.925781 Z M 87.578125 25.308594 C 86.40625 26.042969 86.25 26.761719 86.253906 27.691406 C 86.257812 27.835938 86.257812 27.988281 86.257812 28.136719 C 86.257812 28.292969 86.261719 28.445312 86.261719 28.601562 C 86.265625 28.757812 86.265625 28.910156 86.265625 29.066406 C 86.265625 29.445312 86.273438 29.832031 86.277344 30.207031 C 87.859375 29.976562 89.410156 29.691406 90.949219 29.390625 C 91.171875 29.347656 91.386719 29.308594 91.609375 29.261719 C 92.136719 29.164062 92.667969 29.0625 93.195312 28.953125 C 93.214844 28.554688 93.222656 28.152344 93.238281 27.75 C 93.242188 27.640625 93.246094 27.527344 93.25 27.410156 C 93.265625 26.726562 93.179688 26.246094 92.542969 25.648438 C 91.527344 25.140625 90.714844 25.054688 89.363281 25.0625 C 88.660156 25.085938 88.191406 25.128906 87.578125 25.308594 Z M 87.578125 25.308594 "/>
<path style=" stroke:none;fill-rule:nonzero;fill:rgb(95.686275%,95.686275%,95.686275%);fill-opacity:1;" d="M 26.316406 19.859375 C 27.226562 20.21875 28.074219 20.625 28.777344 21.09375 C 28.777344 21.203125 28.777344 21.320312 28.777344 21.429688 C 28.921875 21.429688 29.0625 21.429688 29.207031 21.429688 C 29.355469 21.617188 29.5 21.804688 29.636719 21.996094 C 29.722656 22.097656 29.804688 22.207031 29.882812 22.3125 C 30.074219 22.6875 30.074219 22.6875 30.074219 23.707031 C 28.285156 23.707031 26.503906 23.707031 24.667969 23.707031 C 24.378906 23.257812 24.09375 22.804688 23.800781 22.34375 C 23.4375 22.222656 23.4375 22.222656 22.9375 22.117188 C 22.699219 22.039062 22.464844 21.960938 22.222656 21.878906 C 20.765625 21.441406 18.925781 21.449219 17.308594 21.632812 C 16.046875 21.816406 15.042969 22.097656 14.296875 22.6875 C 14.152344 22.6875 14.007812 22.6875 13.859375 22.6875 C 13.804688 22.769531 13.75 22.859375 13.699219 22.957031 C 13.480469 23.285156 13.242188 23.601562 12.980469 23.925781 C 12.605469 24.425781 12.390625 24.886719 12.34375 25.425781 C 12.339844 25.539062 12.324219 25.660156 12.316406 25.78125 C 12.246094 27.058594 12.53125 28.21875 13.859375 29.296875 C 13.859375 29.375 13.859375 29.445312 13.859375 29.53125 C 14.003906 29.53125 14.148438 29.53125 14.296875 29.53125 C 14.53125 29.65625 14.53125 29.65625 14.777344 29.789062 C 16.003906 30.421875 17.132812 30.5 18.78125 30.5 C 18.96875 30.5 19.164062 30.5 19.359375 30.5 C 20.855469 30.476562 21.910156 30.308594 23.160156 29.867188 C 23.367188 29.832031 23.585938 29.792969 23.800781 29.753906 C 24.023438 29.507812 24.023438 29.507812 24.238281 29.183594 C 24.453125 28.949219 24.675781 28.71875 24.902344 28.484375 C 25.125 28.253906 25.125 28.253906 25.320312 27.929688 C 23.394531 27.929688 21.464844 27.929688 19.480469 27.929688 C 19.480469 27.171875 19.480469 26.421875 19.480469 25.648438 C 23.046875 25.648438 26.617188 25.648438 30.289062 25.648438 C 30.289062 28.019531 30.289062 30.386719 30.289062 32.832031 C 29.152344 32.832031 28.003906 32.832031 26.828125 32.832031 C 26.757812 32.457031 26.691406 32.078125 26.617188 31.691406 C 26.09375 31.667969 26.09375 31.667969 25.546875 32.003906 C 23.472656 32.953125 20.386719 33.378906 17.664062 33.320312 C 13.976562 33.117188 11.121094 32.332031 8.671875 30.867188 C 6.46875 29.355469 5.734375 27.167969 6.128906 25.308594 C 6.621094 23.304688 7.949219 21.59375 10.964844 20.265625 C 11.878906 19.910156 12.824219 19.628906 13.859375 19.375 C 14.054688 19.328125 14.25 19.289062 14.453125 19.242188 C 18.210938 18.484375 22.949219 18.71875 26.316406 19.859375 Z M 26.316406 19.859375 "/>
<path style=" stroke:none;fill-rule:nonzero;fill:rgb(97.254902%,96.862745%,97.254902%);fill-opacity:1;" d="M 80.875 18.925781 C 82.585938 18.925781 84.300781 18.925781 86.0625 18.925781 C 86.128906 20.539062 86.207031 22.164062 86.277344 23.824219 C 86.417969 23.824219 86.558594 23.824219 86.710938 23.824219 C 86.761719 23.765625 86.816406 23.695312 86.867188 23.625 C 87.542969 22.984375 88.457031 22.777344 89.738281 22.570312 C 91.75 22.269531 93.429688 22.5625 95.355469 22.914062 C 95.355469 22.988281 95.355469 23.0625 95.355469 23.140625 C 95.480469 23.152344 95.605469 23.160156 95.742188 23.171875 C 96.34375 23.277344 96.578125 23.414062 96.996094 23.660156 C 97.113281 23.730469 97.238281 23.808594 97.375 23.878906 C 98.5625 24.816406 98.464844 25.78125 98.449219 26.863281 C 98.449219 27.039062 98.449219 27.210938 98.449219 27.382812 C 98.4375 27.832031 98.429688 28.28125 98.429688 28.730469 C 98.421875 29.199219 98.414062 29.660156 98.410156 30.117188 C 98.40625 31.023438 98.398438 31.933594 98.378906 32.832031 C 96.734375 32.832031 95.097656 32.832031 93.40625 32.832031 C 93.398438 32.648438 93.390625 32.453125 93.378906 32.257812 C 93.34375 31.558594 93.300781 30.851562 93.261719 30.152344 C 93.242188 29.839844 93.226562 29.539062 93.210938 29.234375 C 93.191406 28.796875 93.164062 28.359375 93.140625 27.925781 C 93.125 27.785156 93.121094 27.652344 93.117188 27.511719 C 93.054688 26.367188 93.054688 26.367188 91.894531 25.4375 C 90.710938 25.082031 89.441406 25.167969 88.132812 25.21875 C 87.554688 25.28125 87.554688 25.28125 87.304688 25.511719 C 87.25 25.601562 87.191406 25.679688 87.140625 25.769531 C 87.027344 25.871094 87.027344 25.871094 86.914062 25.976562 C 86.65625 26.277344 86.578125 26.578125 86.492188 26.898438 C 86.351562 26.898438 86.207031 26.898438 86.0625 26.898438 C 86.0625 28.824219 86.0625 30.742188 86.0625 32.722656 C 84.421875 32.722656 82.78125 32.722656 81.089844 32.722656 C 80.878906 29.804688 80.84375 26.894531 80.855469 23.972656 C 80.855469 23.40625 80.863281 22.832031 80.863281 22.261719 C 80.863281 21.148438 80.867188 20.035156 80.875 18.925781 Z M 80.875 18.925781 "/>
<path style=" stroke:none;fill-rule:nonzero;fill:rgb(94.117647%,93.725491%,93.725491%);fill-opacity:1;" d="M 75.898438 23.140625 C 75.898438 23.214844 75.898438 23.296875 75.898438 23.375 C 76.132812 23.402344 76.132812 23.402344 76.371094 23.433594 C 77.371094 23.703125 77.824219 24.167969 78.34375 24.671875 C 78.496094 24.964844 78.496094 24.964844 78.496094 25.878906 C 76.925781 25.878906 75.359375 25.878906 73.738281 25.878906 C 73.53125 25.652344 73.308594 25.425781 73.085938 25.195312 C 72.308594 24.808594 71.679688 24.746094 70.632812 24.714844 C 69.851562 24.738281 69.277344 24.816406 68.554688 24.964844 C 68.332031 25.003906 68.121094 25.039062 67.902344 25.078125 C 67.902344 25.417969 67.902344 25.753906 67.902344 26.105469 C 69.175781 26.367188 70.40625 26.5 71.753906 26.617188 C 73.917969 26.792969 76.394531 27 78.0625 27.816406 C 79.152344 28.671875 79.414062 29.609375 79.035156 30.609375 C 78.714844 31.1875 78.300781 31.535156 77.414062 31.921875 C 77.292969 31.980469 77.167969 32.03125 77.042969 32.089844 C 75.039062 32.957031 72.910156 33.132812 70.375 33.121094 C 70 33.121094 70 33.121094 69.621094 33.121094 C 67.125 33.121094 65.425781 32.773438 63.621094 31.863281 C 62.417969 31.140625 62.0625 30.605469 62.0625 29.640625 C 63.847656 29.640625 65.628906 29.640625 67.46875 29.640625 C 67.605469 29.9375 67.753906 30.238281 67.902344 30.550781 C 68.046875 30.550781 68.191406 30.550781 68.332031 30.550781 C 68.332031 30.628906 68.332031 30.703125 68.332031 30.78125 C 69.160156 30.921875 69.957031 30.90625 70.824219 30.90625 C 71.105469 30.90625 71.386719 30.90625 71.679688 30.90625 C 72.515625 30.898438 72.515625 30.898438 73.308594 30.78125 C 73.511719 30.453125 73.542969 30.246094 73.539062 29.902344 C 73.535156 29.8125 73.535156 29.714844 73.53125 29.621094 C 73.53125 29.558594 73.53125 29.484375 73.519531 29.410156 C 72.289062 29.214844 71.0625 29.0625 69.796875 28.949219 C 67.464844 28.757812 64.9375 28.484375 63.363281 27.46875 C 62.421875 26.726562 62.285156 25.953125 62.496094 25.078125 C 62.890625 24.214844 63.917969 23.628906 65.304688 23.140625 C 68.90625 22.238281 72.300781 22.257812 75.898438 23.140625 Z M 75.898438 23.140625 "/>
<path style=" stroke:none;fill-rule:nonzero;fill:rgb(97.647059%,97.647059%,97.254902%);fill-opacity:1;" d="M 52.988281 22.570312 C 53.199219 22.6875 53.199219 22.6875 53.226562 22.960938 C 53.226562 23.078125 53.226562 23.199219 53.226562 23.324219 C 53.222656 23.453125 53.222656 23.578125 53.222656 23.707031 C 53.21875 23.90625 53.21875 23.90625 53.21875 24.121094 C 53.21875 24.253906 53.21875 24.390625 53.21875 24.527344 C 53.214844 24.863281 53.203125 25.203125 53.199219 25.53125 C 53.042969 25.53125 52.890625 25.53125 52.71875 25.53125 C 52.511719 25.53125 52.296875 25.53125 52.074219 25.53125 C 51.765625 25.527344 51.765625 25.527344 51.445312 25.527344 C 49.910156 25.550781 48.613281 25.746094 47.363281 26.21875 C 46.53125 26.859375 46.613281 27.515625 46.609375 28.269531 C 46.605469 28.398438 46.601562 28.527344 46.589844 28.667969 C 46.582031 29.074219 46.578125 29.492188 46.570312 29.910156 C 46.5625 30.1875 46.558594 30.476562 46.542969 30.757812 C 46.53125 31.449219 46.515625 32.140625 46.503906 32.832031 C 44.722656 32.832031 42.929688 32.832031 41.097656 32.832031 C 41.097656 29.519531 41.097656 26.214844 41.097656 22.804688 C 42.808594 22.804688 44.523438 22.804688 46.285156 22.804688 C 46.429688 23.175781 46.570312 23.550781 46.714844 23.945312 C 46.859375 23.828125 47.003906 23.71875 47.152344 23.597656 C 47.289062 23.597656 47.433594 23.597656 47.585938 23.597656 C 47.585938 23.523438 47.585938 23.453125 47.585938 23.375 C 49.414062 22.851562 50.871094 22.519531 52.988281 22.570312 Z M 52.988281 22.570312 "/>
<path style=" stroke:none;fill-rule:nonzero;fill:rgb(93.725491%,93.725491%,93.333334%);fill-opacity:1;" d="M 54.929688 22.804688 C 56.785156 22.804688 58.636719 22.804688 60.554688 22.804688 C 60.554688 26.105469 60.554688 29.421875 60.554688 32.832031 C 58.703125 32.832031 56.847656 32.832031 54.929688 32.832031 C 54.929688 29.519531 54.929688 26.214844 54.929688 22.804688 Z M 54.929688 22.804688 "/>
<path style=" stroke:none;fill-rule:nonzero;fill:rgb(94.901961%,94.901961%,94.901961%);fill-opacity:1;" d="M 33.101562 22.804688 C 34.882812 22.804688 36.667969 22.804688 38.5 22.804688 C 38.5 26.105469 38.5 29.421875 38.5 32.832031 C 36.71875 32.832031 34.9375 32.832031 33.101562 32.832031 C 33.101562 29.519531 33.101562 26.214844 33.101562 22.804688 Z M 33.101562 22.804688 "/>
<path style=" stroke:none;fill-rule:nonzero;fill:rgb(90.588236%,90.588236%,90.588236%);fill-opacity:1;" d="M 55.671875 18.910156 C 56.003906 18.910156 56.003906 18.910156 56.351562 18.917969 C 56.597656 18.917969 56.835938 18.917969 57.085938 18.917969 C 57.347656 18.917969 57.601562 18.917969 57.863281 18.921875 C 58.125 18.921875 58.378906 18.921875 58.636719 18.921875 C 59.28125 18.921875 59.914062 18.921875 60.554688 18.925781 C 60.554688 19.789062 60.554688 20.65625 60.554688 21.546875 C 58.703125 21.546875 56.847656 21.546875 54.929688 21.546875 C 54.925781 21.132812 54.921875 20.722656 54.921875 20.304688 C 54.921875 20.167969 54.917969 20.039062 54.917969 19.910156 C 54.910156 19.808594 54.910156 19.699219 54.910156 19.597656 C 54.910156 19.492188 54.910156 19.390625 54.90625 19.277344 C 54.941406 18.929688 55.007812 18.925781 55.671875 18.910156 Z M 55.671875 18.910156 "/>
<path style=" stroke:none;fill-rule:nonzero;fill:rgb(99.607843%,99.607843%,99.607843%);fill-opacity:1;" d="M 33.101562 18.925781 C 33.960938 18.921875 34.816406 18.921875 35.683594 18.921875 C 35.925781 18.917969 36.167969 18.917969 36.421875 18.917969 C 36.660156 18.917969 36.894531 18.917969 37.136719 18.917969 C 37.460938 18.910156 37.460938 18.910156 37.789062 18.910156 C 38.285156 18.925781 38.285156 18.925781 38.5 19.042969 C 38.519531 19.222656 38.523438 19.414062 38.523438 19.597656 C 38.523438 19.695312 38.519531 19.800781 38.519531 19.910156 C 38.519531 20.035156 38.519531 20.164062 38.519531 20.304688 C 38.515625 20.710938 38.503906 21.121094 38.5 21.546875 C 36.71875 21.546875 34.9375 21.546875 33.101562 21.546875 C 33.101562 20.679688 33.101562 19.816406 33.101562 18.925781 Z M 33.101562 18.925781 "/>
<path style=" stroke:none;fill-rule:nonzero;fill:rgb(68.627453%,23.529412%,42.352942%);fill-opacity:1;" d="M 98.378906 25.648438 C 98.453125 25.648438 98.523438 25.648438 98.601562 25.648438 C 98.601562 26.703125 98.601562 27.757812 98.601562 28.84375 C 99.242188 28.917969 99.878906 28.992188 100.539062 29.070312 C 101.183594 29.234375 101.183594 29.234375 101.707031 29.410156 C 101.96875 29.496094 101.96875 29.496094 102.238281 29.589844 C 102.613281 29.714844 102.984375 29.851562 103.355469 29.980469 C 103.355469 30.058594 103.355469 30.132812 103.355469 30.207031 C 103.492188 30.207031 103.636719 30.207031 103.789062 30.207031 C 103.789062 30.285156 103.789062 30.359375 103.789062 30.4375 C 103.933594 30.4375 104.070312 30.4375 104.21875 30.4375 C 104.363281 30.625 104.507812 30.808594 104.648438 31.003906 C 104.792969 31.003906 104.9375 31.003906 105.085938 31.003906 C 105.261719 31.175781 105.425781 31.347656 105.597656 31.519531 C 105.691406 31.617188 105.789062 31.710938 105.886719 31.808594 C 106.496094 32.550781 106.675781 33.253906 106.675781 34.050781 C 106.675781 34.1875 106.675781 34.1875 106.675781 34.320312 C 106.652344 35.136719 106.300781 35.832031 105.726562 36.59375 C 105.589844 36.480469 105.445312 36.367188 105.296875 36.25 C 105.398438 36.046875 105.398438 36.046875 105.597656 35.796875 C 105.976562 35.183594 106.015625 34.613281 106.015625 33.984375 C 106.015625 33.886719 106.015625 33.789062 106.019531 33.6875 C 106.019531 33.117188 106.019531 33.117188 105.519531 32.605469 C 105.296875 32.65625 105.296875 32.65625 105.085938 32.722656 C 105.085938 32.453125 105.085938 32.191406 105.085938 31.921875 C 104.796875 31.882812 104.515625 31.84375 104.21875 31.804688 C 104.363281 31.734375 104.507812 31.660156 104.648438 31.574219 C 104.511719 31.390625 104.367188 31.203125 104.21875 31.003906 C 103.71875 31.003906 103.21875 31.003906 102.707031 31.003906 C 102.78125 30.746094 102.847656 30.480469 102.917969 30.207031 C 102.78125 30.207031 102.636719 30.207031 102.488281 30.207031 C 102.488281 30.132812 102.488281 30.058594 102.488281 29.980469 C 102.132812 29.941406 101.777344 29.910156 101.410156 29.867188 C 101.304688 29.980469 101.304688 29.980469 101.191406 30.101562 C 101.050781 30.015625 100.90625 29.941406 100.761719 29.867188 C 100.832031 29.832031 100.90625 29.792969 100.980469 29.753906 C 100.804688 29.71875 100.628906 29.6875 100.453125 29.65625 C 99.898438 29.53125 99.898438 29.53125 99.679688 29.296875 C 99.535156 29.375 99.390625 29.445312 99.25 29.53125 C 99.175781 29.445312 99.105469 29.375 99.027344 29.296875 C 98.960938 30.5 98.886719 31.710938 98.816406 32.949219 C 97.109375 33.074219 97.109375 33.074219 96.300781 33.046875 C 96.128906 33.035156 95.960938 33.035156 95.785156 33.03125 C 95.609375 33.027344 95.441406 33.011719 95.257812 33.007812 C 95.078125 33.003906 94.902344 33 94.71875 32.996094 C 94.28125 32.976562 93.847656 32.957031 93.40625 32.949219 C 93.40625 32.910156 93.40625 32.871094 93.40625 32.832031 C 95.050781 32.832031 96.695312 32.832031 98.378906 32.832031 C 98.378906 30.460938 98.378906 28.097656 98.378906 25.648438 Z M 98.378906 25.648438 "/>
<path style=" stroke:none;fill-rule:nonzero;fill:rgb(79.607844%,8.235294%,80.784315%);fill-opacity:1;" d="M 57.738281 35.570312 C 57.738281 35.644531 57.738281 35.71875 57.738281 35.796875 C 56.523438 36.195312 55.25 36.515625 53.851562 36.707031 C 53.640625 36.671875 53.421875 36.636719 53.199219 36.59375 C 53.054688 36.78125 52.917969 36.964844 52.773438 37.164062 C 52.566406 37.15625 52.566406 37.15625 52.347656 37.148438 C 50.964844 37.117188 50.257812 37.21875 49.09375 37.625 C 48.636719 37.6875 48.636719 37.6875 48.234375 37.730469 C 48.042969 37.773438 47.867188 37.808594 47.683594 37.855469 C 47.152344 37.957031 47.152344 37.957031 46.503906 37.957031 C 46.433594 38.039062 46.355469 38.117188 46.285156 38.195312 C 45.804688 38.253906 45.3125 38.3125 44.828125 38.355469 C 43.898438 38.460938 43.046875 38.5625 42.175781 38.761719 C 42.175781 38.835938 42.175781 38.910156 42.175781 38.988281 C 41.605469 38.988281 41.035156 38.988281 40.445312 38.988281 C 40.375 38.914062 40.304688 38.835938 40.230469 38.761719 C 40.945312 38.613281 41.652344 38.46875 42.371094 38.324219 C 42.671875 38.265625 42.671875 38.265625 42.96875 38.203125 C 44.101562 37.972656 45.230469 37.769531 46.394531 37.597656 C 46.976562 37.503906 46.976562 37.503906 47.660156 37.339844 C 48.417969 37.175781 49.183594 37.027344 49.960938 36.894531 C 50.097656 36.867188 50.238281 36.839844 50.375 36.820312 C 50.964844 36.71875 51.546875 36.617188 52.125 36.519531 C 52.5625 36.441406 52.992188 36.371094 53.421875 36.292969 C 53.671875 36.25 53.925781 36.210938 54.191406 36.164062 C 54.960938 36.019531 55.699219 35.851562 56.445312 35.679688 C 56.910156 35.609375 57.257812 35.570312 57.738281 35.570312 Z M 57.738281 35.570312 "/>
<path style=" stroke:none;fill-rule:nonzero;fill:rgb(63.921571%,63.921571%,63.921571%);fill-opacity:1;" d="M 41.097656 22.804688 C 42.808594 22.804688 44.523438 22.804688 46.285156 22.804688 C 46.742188 24.238281 46.742188 24.238281 46.503906 24.621094 C 46.355469 24.621094 46.210938 24.621094 46.066406 24.621094 C 46.066406 24.054688 46.066406 23.5 46.066406 22.914062 C 44.5 22.914062 42.929688 22.914062 41.316406 22.914062 C 41.316406 26.148438 41.316406 29.386719 41.316406 32.722656 C 42.953125 32.722656 44.597656 32.722656 46.285156 32.722656 C 46.285156 30.832031 46.285156 28.953125 46.285156 27.019531 C 46.355469 27.019531 46.429688 27.019531 46.503906 27.019531 C 46.503906 28.941406 46.503906 30.855469 46.503906 32.832031 C 44.722656 32.832031 42.929688 32.832031 41.097656 32.832031 C 41.097656 29.519531 41.097656 26.214844 41.097656 22.804688 Z M 41.097656 22.804688 "/>
<path style=" stroke:none;fill-rule:nonzero;fill:rgb(66.666669%,31.764707%,49.803922%);fill-opacity:1;" d="M 86.0625 26.898438 C 86.128906 26.898438 86.207031 26.898438 86.277344 26.898438 C 86.277344 28 86.277344 29.085938 86.277344 30.207031 C 88.558594 29.757812 90.839844 29.308594 93.195312 28.84375 C 93.480469 29.144531 93.339844 29.316406 93.195312 29.640625 C 93.089844 29.472656 93.089844 29.472656 92.976562 29.296875 C 92.328125 29.410156 92.125 29.492188 91.683594 29.753906 C 91.824219 29.792969 91.96875 29.832031 92.117188 29.867188 C 91.761719 29.9375 91.398438 30.015625 91.035156 30.101562 C 91.035156 30.015625 91.035156 29.941406 91.035156 29.867188 C 90.910156 29.882812 90.792969 29.902344 90.667969 29.917969 C 89.960938 30.007812 89.246094 30.074219 88.53125 30.140625 C 88.015625 30.207031 87.609375 30.304688 87.140625 30.4375 C 87.140625 30.507812 87.140625 30.585938 87.140625 30.667969 C 86.816406 30.722656 86.816406 30.722656 86.492188 30.78125 C 86.492188 31.003906 86.492188 31.238281 86.503906 31.46875 C 86.503906 31.597656 86.507812 31.734375 86.507812 31.863281 C 86.507812 31.988281 86.507812 32.121094 86.511719 32.257812 C 86.492188 32.605469 86.492188 32.605469 86.277344 32.949219 C 84.488281 32.949219 82.707031 32.949219 80.875 32.949219 C 80.875 32.910156 80.875 32.871094 80.875 32.832031 C 82.585938 32.832031 84.300781 32.832031 86.0625 32.832031 C 86.0625 30.875 86.0625 28.917969 86.0625 26.898438 Z M 86.0625 26.898438 "/>
<path style=" stroke:none;fill-rule:nonzero;fill:rgb(61.56863%,11.764706%,60.000002%);fill-opacity:1;" d="M 42.175781 38.988281 C 44.226562 38.984375 46.28125 38.980469 48.320312 38.980469 C 48.480469 38.980469 48.632812 38.980469 48.785156 38.980469 C 53.355469 38.972656 57.929688 38.996094 62.496094 39.105469 C 62.609375 39.214844 62.609375 39.214844 62.714844 39.328125 C 58.273438 39.574219 53.800781 39.453125 49.347656 39.335938 C 49.160156 39.332031 48.960938 39.328125 48.761719 39.316406 C 46.5625 39.265625 44.375 39.195312 42.175781 39.105469 C 42.175781 39.0625 42.175781 39.023438 42.175781 38.988281 Z M 42.175781 38.988281 "/>
<path style=" stroke:none;fill-rule:nonzero;fill:rgb(64.313728%,64.313728%,63.921571%);fill-opacity:1;" d="M 19.480469 25.648438 C 23.046875 25.648438 26.617188 25.648438 30.289062 25.648438 C 30.289062 28.019531 30.289062 30.386719 30.289062 32.832031 C 29.152344 32.832031 28.003906 32.832031 26.828125 32.832031 C 26.78125 32.550781 26.730469 32.261719 26.679688 31.980469 C 26.625 31.671875 26.625 31.671875 26.398438 31.351562 C 26.503906 31.238281 26.503906 31.238281 26.617188 31.121094 C 26.757812 31.121094 26.898438 31.121094 27.046875 31.121094 C 27.046875 31.648438 27.046875 32.179688 27.046875 32.722656 C 28.046875 32.722656 29.046875 32.722656 30.074219 32.722656 C 30.074219 30.421875 30.074219 28.128906 30.074219 25.769531 C 26.648438 25.769531 23.222656 25.769531 19.695312 25.769531 C 19.695312 26.441406 19.695312 27.117188 19.695312 27.816406 C 21.621094 27.816406 23.546875 27.816406 25.539062 27.816406 C 25.464844 27.960938 25.390625 28.113281 25.320312 28.273438 C 25.320312 28.15625 25.320312 28.050781 25.320312 27.929688 C 23.394531 27.929688 21.464844 27.929688 19.480469 27.929688 C 19.480469 27.171875 19.480469 26.421875 19.480469 25.648438 Z M 19.480469 25.648438 "/>
<path style=" stroke:none;fill-rule:nonzero;fill:rgb(61.56863%,17.254902%,58.823532%);fill-opacity:1;" d="M 62.933594 39.445312 C 65.351562 39.441406 67.773438 39.4375 70.199219 39.4375 C 71.324219 39.4375 72.453125 39.4375 73.578125 39.433594 C 83.148438 39.425781 83.148438 39.425781 87.140625 39.558594 C 87.140625 39.632812 87.140625 39.707031 87.140625 39.78125 C 81.117188 39.8125 75.097656 39.777344 69.078125 39.675781 C 68.921875 39.667969 68.769531 39.667969 68.609375 39.664062 C 66.71875 39.628906 64.820312 39.589844 62.933594 39.558594 C 62.933594 39.515625 62.933594 39.484375 62.933594 39.445312 Z M 62.933594 39.445312 "/>
<path style=" stroke:none;fill-rule:nonzero;fill:rgb(59.607846%,24.705882%,39.215687%);fill-opacity:1;" d="M 98.378906 25.648438 C 98.453125 25.648438 98.523438 25.648438 98.601562 25.648438 C 98.601562 26.703125 98.601562 27.757812 98.601562 28.84375 C 99.242188 28.917969 99.878906 28.992188 100.539062 29.070312 C 101.3125 29.25 101.3125 29.25 101.839844 29.410156 C 101.839844 29.445312 101.839844 29.488281 101.839844 29.53125 C 101.191406 29.53125 100.539062 29.53125 99.898438 29.53125 C 99.824219 29.445312 99.753906 29.375 99.679688 29.296875 C 99.535156 29.375 99.390625 29.445312 99.25 29.53125 C 99.175781 29.445312 99.105469 29.375 99.027344 29.296875 C 98.960938 30.5 98.886719 31.710938 98.816406 32.949219 C 97.109375 33.074219 97.109375 33.074219 96.300781 33.046875 C 96.128906 33.035156 95.960938 33.035156 95.785156 33.03125 C 95.609375 33.027344 95.441406 33.011719 95.257812 33.007812 C 95.078125 33.003906 94.902344 33 94.71875 32.996094 C 94.28125 32.976562 93.847656 32.957031 93.40625 32.949219 C 93.40625 32.910156 93.40625 32.871094 93.40625 32.832031 C 95.050781 32.832031 96.695312 32.832031 98.378906 32.832031 C 98.378906 30.460938 98.378906 28.097656 98.378906 25.648438 Z M 98.378906 25.648438 "/>
<path style=" stroke:none;fill-rule:nonzero;fill:rgb(66.274512%,65.882355%,65.882355%);fill-opacity:1;" d="M 33.101562 18.925781 C 33.960938 18.921875 34.816406 18.921875 35.683594 18.921875 C 35.925781 18.917969 36.167969 18.917969 36.421875 18.917969 C 36.660156 18.917969 36.894531 18.917969 37.136719 18.917969 C 37.460938 18.910156 37.460938 18.910156 37.789062 18.910156 C 38.285156 18.925781 38.285156 18.925781 38.5 19.042969 C 38.519531 19.222656 38.523438 19.414062 38.523438 19.597656 C 38.523438 19.695312 38.519531 19.800781 38.519531 19.910156 C 38.519531 20.035156 38.519531 20.164062 38.519531 20.304688 C 38.515625 20.710938 38.503906 21.121094 38.5 21.546875 C 36.71875 21.546875 34.9375 21.546875 33.101562 21.546875 C 33.101562 21.503906 33.101562 21.472656 33.101562 21.429688 C 34.742188 21.429688 36.382812 21.429688 38.074219 21.429688 C 38.074219 20.679688 38.074219 19.921875 38.074219 19.152344 C 36.496094 19.152344 34.933594 19.152344 33.3125 19.152344 C 33.3125 19.757812 33.3125 20.355469 33.3125 20.976562 C 33.242188 20.976562 33.167969 20.976562 33.101562 20.976562 C 33.101562 20.304688 33.101562 19.621094 33.101562 18.925781 Z M 33.101562 18.925781 "/>
<path style=" stroke:none;fill-rule:nonzero;fill:rgb(78.431374%,29.411766%,59.215689%);fill-opacity:1;" d="M 80.875 31.230469 C 80.875 31.574219 80.875 31.914062 80.875 32.261719 C 80.800781 32.144531 80.730469 32.035156 80.65625 31.921875 C 80.378906 31.917969 80.101562 31.914062 79.820312 31.914062 C 79.664062 31.914062 79.503906 31.914062 79.347656 31.914062 C 78.910156 31.90625 78.910156 31.90625 78.496094 32.035156 C 78.339844 32.257812 78.195312 32.488281 78.0625 32.722656 C 77.773438 32.679688 77.492188 32.648438 77.195312 32.605469 C 77.195312 32.492188 77.195312 32.378906 77.195312 32.261719 C 77.074219 32.332031 76.960938 32.40625 76.835938 32.476562 C 76.3125 32.730469 75.933594 32.847656 75.253906 32.949219 C 75.039062 32.910156 74.820312 32.871094 74.605469 32.832031 C 75.082031 32.664062 75.5625 32.5 76.039062 32.328125 C 76.421875 32.191406 76.808594 32.046875 77.1875 31.894531 C 77.949219 31.660156 78.6875 31.542969 79.539062 31.417969 C 80.773438 31.230469 80.773438 31.230469 80.875 31.230469 Z M 80.875 31.230469 "/>
<path style=" stroke:none;fill-rule:nonzero;fill:rgb(75.686276%,27.058825%,44.705883%);fill-opacity:1;" d="M 93.195312 28.84375 C 93.480469 29.144531 93.339844 29.316406 93.195312 29.640625 C 93.121094 29.53125 93.050781 29.414062 92.976562 29.296875 C 92.328125 29.410156 92.125 29.492188 91.683594 29.753906 C 91.824219 29.792969 91.96875 29.832031 92.117188 29.867188 C 91.761719 29.9375 91.398438 30.015625 91.035156 30.101562 C 91.035156 30.015625 91.035156 29.941406 91.035156 29.867188 C 90.851562 29.890625 90.851562 29.890625 90.667969 29.917969 C 89.355469 30.085938 88.070312 30.246094 86.710938 30.207031 C 87.367188 29.976562 87.957031 29.855469 88.695312 29.710938 C 88.960938 29.660156 89.21875 29.609375 89.488281 29.558594 C 89.765625 29.507812 90.042969 29.445312 90.320312 29.394531 C 90.59375 29.34375 90.871094 29.289062 91.148438 29.234375 C 91.835938 29.109375 92.515625 28.972656 93.195312 28.84375 Z M 93.195312 28.84375 "/>
<path style=" stroke:none;fill-rule:nonzero;fill:rgb(37.64706%,37.64706%,36.862746%);fill-opacity:1;" d="M 30.074219 25.648438 C 30.148438 25.648438 30.214844 25.648438 30.289062 25.648438 C 30.289062 28.019531 30.289062 30.386719 30.289062 32.832031 C 29.152344 32.832031 28.003906 32.832031 26.828125 32.832031 C 26.78125 32.550781 26.730469 32.261719 26.679688 31.980469 C 26.625 31.671875 26.625 31.671875 26.398438 31.351562 C 26.46875 31.273438 26.542969 31.199219 26.617188 31.121094 C 26.757812 31.121094 26.898438 31.121094 27.046875 31.121094 C 27.046875 31.648438 27.046875 32.179688 27.046875 32.722656 C 28.046875 32.722656 29.046875 32.722656 30.074219 32.722656 C 30.074219 30.382812 30.074219 28.054688 30.074219 25.648438 Z M 30.074219 25.648438 "/>
<path style=" stroke:none;fill-rule:nonzero;fill:rgb(83.529413%,11.372549%,85.490197%);fill-opacity:1;" d="M 44.984375 38.527344 C 44.984375 38.601562 44.984375 38.6875 44.984375 38.761719 C 47.769531 38.816406 47.769531 38.816406 50.609375 38.871094 C 50.609375 38.949219 50.609375 39.019531 50.609375 39.105469 C 46.433594 39.046875 46.433594 39.046875 42.175781 38.988281 C 42.175781 38.871094 42.175781 38.761719 42.175781 38.644531 C 43.1875 38.363281 43.898438 38.4375 44.984375 38.527344 Z M 44.984375 38.527344 "/>
<path style=" stroke:none;fill-rule:nonzero;fill:rgb(65.490198%,9.803922%,63.921571%);fill-opacity:1;" d="M 57.738281 35.570312 C 57.738281 35.644531 57.738281 35.71875 57.738281 35.796875 C 55.40625 36.5625 53.09375 36.796875 50.390625 36.9375 C 50.859375 36.691406 51.09375 36.644531 51.714844 36.546875 C 51.890625 36.519531 52.066406 36.492188 52.25 36.460938 C 52.4375 36.433594 52.621094 36.398438 52.8125 36.375 C 54.058594 36.171875 55.253906 35.964844 56.445312 35.679688 C 56.910156 35.609375 57.257812 35.570312 57.738281 35.570312 Z M 57.738281 35.570312 "/>
<path style=" stroke:none;fill-rule:nonzero;fill:rgb(67.058825%,7.843138%,68.235296%);fill-opacity:1;" d="M 46.714844 37.730469 C 46.363281 37.808594 46.007812 37.882812 45.636719 37.957031 C 45.636719 38.039062 45.636719 38.117188 45.636719 38.195312 C 45.480469 38.214844 45.316406 38.238281 45.15625 38.253906 C 44.835938 38.300781 44.835938 38.300781 44.511719 38.347656 C 44.207031 38.390625 44.207031 38.390625 43.886719 38.4375 C 43.300781 38.523438 42.746094 38.640625 42.175781 38.761719 C 42.175781 38.835938 42.175781 38.910156 42.175781 38.988281 C 41.605469 38.988281 41.035156 38.988281 40.445312 38.988281 C 40.375 38.914062 40.304688 38.835938 40.230469 38.761719 C 40.957031 38.613281 41.691406 38.464844 42.425781 38.316406 C 42.628906 38.277344 42.832031 38.238281 43.046875 38.195312 C 43.621094 38.078125 44.199219 37.957031 44.777344 37.847656 C 45.148438 37.773438 45.148438 37.773438 45.53125 37.703125 C 46.066406 37.625 46.066406 37.625 46.714844 37.730469 Z M 46.714844 37.730469 "/>
<path style=" stroke:none;fill-rule:nonzero;fill:rgb(77.64706%,28.235295%,44.705883%);fill-opacity:1;" d="M 100.539062 29.410156 C 101.710938 29.464844 102.4375 29.59375 103.355469 29.980469 C 103.355469 30.058594 103.355469 30.132812 103.355469 30.207031 C 103.492188 30.207031 103.636719 30.207031 103.789062 30.207031 C 103.789062 30.285156 103.789062 30.359375 103.789062 30.4375 C 103.933594 30.4375 104.070312 30.4375 104.21875 30.4375 C 104.21875 30.585938 104.21875 30.734375 104.21875 30.894531 C 103.71875 30.929688 103.21875 30.96875 102.707031 31.003906 C 102.78125 30.746094 102.847656 30.480469 102.917969 30.207031 C 102.78125 30.207031 102.636719 30.207031 102.488281 30.207031 C 102.488281 30.132812 102.488281 30.058594 102.488281 29.980469 C 102.132812 29.941406 101.777344 29.910156 101.410156 29.867188 C 101.335938 29.9375 101.265625 30.015625 101.191406 30.101562 C 101.050781 30.015625 100.90625 29.941406 100.761719 29.867188 C 100.832031 29.832031 100.90625 29.792969 100.980469 29.753906 C 100.835938 29.714844 100.691406 29.679688 100.539062 29.640625 C 100.539062 29.566406 100.539062 29.488281 100.539062 29.410156 Z M 100.539062 29.410156 "/>
<path style=" stroke:none;fill-rule:nonzero;fill:rgb(67.843139%,15.294118%,59.607846%);fill-opacity:1;" d="M 63.792969 34.429688 C 63.722656 34.539062 63.648438 34.652344 63.582031 34.769531 C 63.367188 34.769531 63.144531 34.769531 62.933594 34.769531 C 62.859375 34.882812 62.789062 35 62.714844 35.113281 C 61.433594 35.171875 61.433594 35.171875 60.117188 35.226562 C 60.117188 35.300781 60.117188 35.375 60.117188 35.453125 C 59.332031 35.496094 58.550781 35.527344 57.738281 35.570312 C 58.351562 35.355469 58.839844 35.238281 59.527344 35.121094 C 59.75 35.078125 59.964844 35.039062 60.191406 35 C 60.417969 34.953125 60.65625 34.914062 60.890625 34.875 C 61.117188 34.828125 61.355469 34.785156 61.589844 34.738281 C 63.308594 34.429688 63.308594 34.429688 63.792969 34.429688 Z M 63.792969 34.429688 "/>
<path style=" stroke:none;fill-rule:nonzero;fill:rgb(66.666669%,25.098041%,48.235294%);fill-opacity:1;" d="M 106.164062 33.519531 C 106.304688 33.519531 106.449219 33.519531 106.597656 33.519531 C 106.710938 34.632812 106.472656 35.542969 105.726562 36.59375 C 105.589844 36.480469 105.445312 36.367188 105.296875 36.25 C 105.398438 36.019531 105.398438 36.019531 105.597656 35.753906 C 105.996094 35.132812 105.996094 34.570312 105.949219 33.925781 C 105.949219 33.828125 105.945312 33.726562 105.945312 33.625 C 106.019531 33.59375 106.09375 33.554688 106.164062 33.519531 Z M 106.164062 33.519531 "/>
<path style=" stroke:none;fill-rule:nonzero;fill:rgb(54.901963%,54.901963%,54.509807%);fill-opacity:1;" d="M 41.097656 22.804688 C 42.808594 22.804688 44.523438 22.804688 46.285156 22.804688 C 46.742188 24.238281 46.742188 24.238281 46.503906 24.621094 C 46.355469 24.621094 46.210938 24.621094 46.066406 24.621094 C 46.066406 24.054688 46.066406 23.5 46.066406 22.914062 C 44.429688 22.914062 42.785156 22.914062 41.097656 22.914062 C 41.097656 22.878906 41.097656 22.839844 41.097656 22.804688 Z M 41.097656 22.804688 "/>
<path style=" stroke:none;fill-rule:nonzero;fill:rgb(69.803923%,23.921569%,48.235294%);fill-opacity:1;" d="M 80.875 31.230469 C 80.875 31.574219 80.875 31.914062 80.875 32.261719 C 80.800781 32.144531 80.730469 32.035156 80.65625 31.921875 C 79.65625 31.921875 78.660156 31.921875 77.625 31.921875 C 77.84375 31.691406 77.84375 31.691406 78.324219 31.597656 C 78.519531 31.570312 78.714844 31.542969 78.914062 31.515625 C 80.816406 31.230469 80.816406 31.230469 80.875 31.230469 Z M 80.875 31.230469 "/>
<path style=" stroke:none;fill-rule:nonzero;fill:rgb(68.627453%,20.392157%,54.11765%);fill-opacity:1;" d="M 104.4375 36.820312 C 104.71875 36.859375 105.007812 36.902344 105.296875 36.9375 C 105.125 37.089844 104.960938 37.238281 104.785156 37.390625 C 104.691406 37.480469 104.59375 37.5625 104.496094 37.648438 C 104.359375 37.75 104.359375 37.75 104.21875 37.847656 C 104.074219 37.847656 103.933594 37.847656 103.789062 37.847656 C 103.789062 37.925781 103.789062 38 103.789062 38.074219 C 103.644531 38.074219 103.507812 38.074219 103.355469 38.074219 C 103.355469 38.152344 103.355469 38.222656 103.355469 38.300781 C 103.210938 38.300781 103.066406 38.300781 102.917969 38.300781 C 102.917969 38.378906 102.917969 38.453125 102.917969 38.527344 C 102.78125 38.496094 102.636719 38.460938 102.488281 38.417969 C 102.488281 38.300781 102.488281 38.195312 102.488281 38.074219 C 102.84375 38.039062 103.207031 38 103.566406 37.957031 C 103.589844 37.855469 103.613281 37.753906 103.636719 37.648438 C 103.789062 37.277344 103.964844 37.101562 104.4375 36.820312 Z M 104.4375 36.820312 "/>
<path style=" stroke:none;fill-rule:nonzero;fill:rgb(63.529414%,23.137255%,37.254903%);fill-opacity:1;" d="M 92.117188 29.296875 C 90.683594 29.640625 90.683594 29.640625 89.957031 29.640625 C 90.019531 29.753906 90.09375 29.867188 90.164062 29.980469 C 89.007812 30.113281 87.910156 30.238281 86.710938 30.207031 C 87.5625 29.910156 88.457031 29.753906 89.410156 29.5625 C 89.59375 29.519531 89.785156 29.484375 89.980469 29.445312 C 90.160156 29.410156 90.339844 29.375 90.523438 29.339844 C 90.6875 29.308594 90.859375 29.269531 91.023438 29.242188 C 91.464844 29.183594 91.464844 29.183594 92.117188 29.296875 Z M 92.117188 29.296875 "/>
<path style=" stroke:none;fill-rule:nonzero;fill:rgb(60.784316%,18.431373%,53.333336%);fill-opacity:1;" d="M 101.628906 38.527344 C 101.910156 38.570312 102.191406 38.601562 102.488281 38.644531 C 101.542969 39.109375 99.9375 39.675781 98.601562 39.675781 C 98.601562 39.558594 98.601562 39.445312 98.601562 39.328125 C 98.957031 39.328125 99.308594 39.328125 99.679688 39.328125 C 99.679688 39.253906 99.679688 39.183594 99.679688 39.105469 C 99.964844 39.105469 100.25 39.105469 100.539062 39.105469 C 100.539062 39.023438 100.539062 38.957031 100.539062 38.871094 C 100.832031 38.871094 101.113281 38.871094 101.410156 38.871094 C 101.480469 38.761719 101.554688 38.648438 101.628906 38.527344 Z M 101.628906 38.527344 "/>
<path style=" stroke:none;fill-rule:nonzero;fill:rgb(88.627452%,4.313726%,93.725491%);fill-opacity:1;" d="M 44.984375 38.527344 C 44.984375 38.601562 44.984375 38.6875 44.984375 38.761719 C 45.128906 38.796875 45.273438 38.835938 45.417969 38.871094 C 44.277344 38.871094 43.136719 38.871094 41.960938 38.871094 C 42.175781 38.644531 42.175781 38.644531 42.625 38.515625 C 43.484375 38.390625 44.105469 38.453125 44.984375 38.527344 Z M 44.984375 38.527344 "/>
<path style=" stroke:none;fill-rule:nonzero;fill:rgb(79.215688%,23.529412%,61.56863%);fill-opacity:1;" d="M 105.296875 35.34375 C 105.445312 35.410156 105.589844 35.496094 105.726562 35.570312 C 105.675781 35.796875 105.597656 36.023438 105.519531 36.25 C 105.511719 36.441406 105.5 36.636719 105.519531 36.820312 C 105.113281 36.792969 105.113281 36.792969 104.648438 36.707031 C 104.382812 36.472656 104.382812 36.472656 104.21875 36.25 C 104.433594 36.214844 104.644531 36.171875 104.867188 36.136719 C 105.132812 35.742188 105.132812 35.742188 105.296875 35.34375 Z M 105.296875 35.34375 "/>
<path style=" stroke:none;fill-rule:nonzero;fill:rgb(88.235295%,10.196079%,81.568629%);fill-opacity:1;" d="M 59.257812 35.453125 C 59.183594 35.640625 59.109375 35.832031 59.039062 36.023438 C 58.328125 36.066406 57.609375 36.097656 56.878906 36.136719 C 56.878906 36.066406 56.878906 35.988281 56.878906 35.90625 C 57.164062 35.871094 57.449219 35.839844 57.738281 35.796875 C 57.738281 35.722656 57.738281 35.644531 57.738281 35.570312 C 58.28125 35.484375 58.683594 35.453125 59.257812 35.453125 Z M 59.257812 35.453125 "/>
<path style=" stroke:none;fill-rule:nonzero;fill:rgb(61.56863%,28.627452%,50.196081%);fill-opacity:1;" d="M 68.554688 33.054688 C 69.976562 33.054688 71.402344 33.054688 72.878906 33.054688 C 72.878906 33.097656 72.878906 33.132812 72.878906 33.175781 C 71.710938 33.324219 70.625 33.464844 69.417969 33.402344 C 69.128906 33.292969 68.847656 33.175781 68.554688 33.054688 Z M 68.554688 33.054688 "/>
<path style=" stroke:none;fill-rule:nonzero;fill:rgb(66.274512%,66.274512%,66.274512%);fill-opacity:1;" d="M 26.617188 31.121094 C 26.757812 31.121094 26.898438 31.121094 27.046875 31.121094 C 27.046875 31.648438 27.046875 32.179688 27.046875 32.722656 C 28.046875 32.722656 29.046875 32.722656 30.074219 32.722656 C 30.074219 32.753906 30.074219 32.789062 30.074219 32.832031 C 29 32.832031 27.933594 32.832031 26.828125 32.832031 C 26.78125 32.550781 26.730469 32.261719 26.679688 31.980469 C 26.625 31.671875 26.625 31.671875 26.398438 31.351562 C 26.46875 31.273438 26.542969 31.199219 26.617188 31.121094 Z M 26.617188 31.121094 "/>
<path style=" stroke:none;fill-rule:nonzero;fill:rgb(69.01961%,18.039216%,64.705884%);fill-opacity:1;" d="M 89.007812 39.609375 C 89.265625 39.625 89.519531 39.632812 89.785156 39.640625 C 89.980469 39.652344 90.183594 39.664062 90.386719 39.675781 C 90.386719 39.75 90.386719 39.824219 90.386719 39.898438 C 89.3125 39.898438 88.242188 39.898438 87.140625 39.898438 C 87.140625 39.824219 87.140625 39.753906 87.140625 39.675781 C 87.777344 39.503906 88.304688 39.578125 89.007812 39.609375 Z M 89.007812 39.609375 "/>
<path style=" stroke:none;fill-rule:nonzero;fill:rgb(85.09804%,9.411765%,83.529413%);fill-opacity:1;" d="M 53.199219 36.820312 C 52.84375 37.054688 52.667969 37.15625 52.089844 37.199219 C 51.839844 37.1875 51.839844 37.1875 51.585938 37.183594 C 51.414062 37.183594 51.246094 37.179688 51.074219 37.179688 C 50.921875 37.175781 50.765625 37.167969 50.609375 37.164062 C 50.390625 37.164062 50.183594 37.164062 49.960938 37.164062 C 50.5 36.878906 50.839844 36.867188 51.585938 36.796875 C 51.792969 36.78125 52.003906 36.761719 52.222656 36.738281 C 52.773438 36.707031 52.773438 36.707031 53.199219 36.820312 Z M 53.199219 36.820312 "/>
<path style=" stroke:none;fill-rule:nonzero;fill:rgb(61.56863%,11.372549%,58.431375%);fill-opacity:1;" d="M 57.738281 35.570312 C 57.738281 35.644531 57.738281 35.71875 57.738281 35.796875 C 56.808594 36.195312 56.074219 36.167969 54.929688 36.136719 C 55.148438 35.90625 55.148438 35.90625 55.628906 35.8125 C 55.820312 35.789062 56.011719 35.753906 56.21875 35.726562 C 56.410156 35.699219 56.605469 35.667969 56.800781 35.632812 C 57.3125 35.570312 57.3125 35.570312 57.738281 35.570312 Z M 57.738281 35.570312 "/>
<path style=" stroke:none;fill-rule:nonzero;fill:rgb(80.784315%,23.921569%,61.960787%);fill-opacity:1;" d="M 74.386719 32.949219 C 74.3125 33.132812 74.246094 33.320312 74.167969 33.519531 C 73.675781 33.519531 73.175781 33.519531 72.660156 33.519531 C 72.585938 33.402344 72.511719 33.292969 72.4375 33.175781 C 73.117188 32.957031 73.605469 32.921875 74.386719 32.949219 Z M 74.386719 32.949219 "/>
<path style=" stroke:none;fill-rule:nonzero;fill:rgb(65.098041%,65.098041%,64.313728%);fill-opacity:1;" d="M 12.996094 19.722656 C 12.996094 19.796875 12.996094 19.871094 12.996094 19.945312 C 12.625 20.089844 12.625 20.089844 12.144531 20.234375 C 11.472656 20.429688 11.472656 20.429688 11.050781 20.75 C 10.496094 20.824219 10.496094 20.824219 9.972656 20.863281 C 12.003906 19.722656 12.003906 19.722656 12.996094 19.722656 Z M 12.996094 19.722656 "/>
<path style=" stroke:none;fill-rule:nonzero;fill:rgb(53.725493%,10.980392%,47.843137%);fill-opacity:1;" d="M 60.984375 35.113281 C 60.703125 35.148438 60.414062 35.183594 60.117188 35.226562 C 60.117188 35.300781 60.117188 35.375 60.117188 35.453125 C 59.332031 35.496094 58.550781 35.527344 57.738281 35.570312 C 58.257812 35.386719 58.675781 35.261719 59.238281 35.148438 C 59.386719 35.121094 59.53125 35.085938 59.679688 35.054688 C 60.1875 34.988281 60.492188 35.023438 60.984375 35.113281 Z M 60.984375 35.113281 "/>
<path style=" stroke:none;fill-rule:nonzero;fill:rgb(83.92157%,23.921569%,60.000002%);fill-opacity:1;" d="M 77.625 31.921875 C 77.914062 31.960938 78.199219 31.996094 78.496094 32.035156 C 78.347656 32.257812 78.210938 32.484375 78.0625 32.722656 C 77.773438 32.679688 77.492188 32.648438 77.195312 32.605469 C 77.195312 32.492188 77.195312 32.378906 77.195312 32.261719 C 77.34375 32.261719 77.488281 32.261719 77.625 32.261719 C 77.625 32.144531 77.625 32.035156 77.625 31.921875 Z M 77.625 31.921875 "/>
<path style=" stroke:none;fill-rule:nonzero;fill:rgb(85.882354%,14.901961%,75.686276%);fill-opacity:1;" d="M 62.496094 35 C 62.496094 35.105469 62.496094 35.222656 62.496094 35.34375 C 61.839844 35.453125 61.433594 35.453125 60.765625 35.34375 C 60.765625 35.261719 60.765625 35.1875 60.765625 35.113281 C 61.40625 35 61.839844 34.988281 62.496094 35 Z M 62.496094 35 "/>
<path style=" stroke:none;fill-rule:nonzero;fill:rgb(81.176472%,27.450982%,47.843137%);fill-opacity:1;" d="M 102.917969 30.324219 C 103.136719 30.324219 103.34375 30.324219 103.566406 30.324219 C 103.566406 30.4375 103.566406 30.550781 103.566406 30.667969 C 103.789062 30.667969 103.996094 30.667969 104.21875 30.667969 C 104.21875 30.742188 104.21875 30.820312 104.21875 30.894531 C 103.71875 30.929688 103.21875 30.96875 102.707031 31.003906 C 102.78125 30.78125 102.847656 30.554688 102.917969 30.324219 Z M 102.917969 30.324219 "/>
<path style=" stroke:none;fill-rule:nonzero;fill:rgb(60.000002%,23.137255%,35.294119%);fill-opacity:1;" d="M 102.488281 29.753906 C 102.917969 29.867188 102.917969 29.867188 103.355469 29.980469 C 103.355469 30.058594 103.355469 30.132812 103.355469 30.207031 C 103.492188 30.207031 103.636719 30.207031 103.789062 30.207031 C 103.789062 30.285156 103.789062 30.359375 103.789062 30.4375 C 103.933594 30.4375 104.070312 30.4375 104.21875 30.4375 C 104.21875 30.507812 104.21875 30.585938 104.21875 30.667969 C 104.007812 30.667969 103.789062 30.667969 103.566406 30.667969 C 103.566406 30.554688 103.566406 30.445312 103.566406 30.324219 C 103.210938 30.285156 102.859375 30.25 102.488281 30.207031 C 102.488281 30.058594 102.488281 29.910156 102.488281 29.753906 Z M 102.488281 29.753906 "/>
<path style=" stroke:none;fill-rule:nonzero;fill:rgb(47.450981%,9.411765%,49.411765%);fill-opacity:1;" d="M 41.960938 38.644531 C 41.894531 38.6875 41.820312 38.722656 41.746094 38.761719 C 41.886719 38.835938 42.03125 38.910156 42.175781 38.988281 C 41.605469 38.988281 41.035156 38.988281 40.445312 38.988281 C 40.375 38.914062 40.304688 38.835938 40.230469 38.761719 C 41.230469 38.519531 41.230469 38.519531 41.960938 38.644531 Z M 41.960938 38.644531 "/>
<path style=" stroke:none;fill-rule:nonzero;fill:rgb(54.901963%,54.901963%,54.901963%);fill-opacity:1;" d="M 65.09375 23.375 C 64.769531 23.800781 64.277344 24.003906 63.582031 24.277344 C 63.582031 23.945312 63.582031 23.945312 64.089844 23.632812 C 64.664062 23.375 64.664062 23.375 65.09375 23.375 Z M 65.09375 23.375 "/>
<path style=" stroke:none;fill-rule:nonzero;fill:rgb(56.078434%,9.019608%,54.11765%);fill-opacity:1;" d="M 50.390625 37.054688 C 49.871094 37.324219 49.671875 37.3125 48.960938 37.351562 C 48.785156 37.359375 48.609375 37.363281 48.429688 37.375 C 48.292969 37.378906 48.15625 37.386719 48.015625 37.390625 C 48.71875 37.015625 49.441406 36.882812 50.390625 37.054688 Z M 50.390625 37.054688 "/>
<path style=" stroke:none;fill-rule:nonzero;fill:rgb(83.529413%,13.333334%,78.823531%);fill-opacity:1;" d="M 59.257812 35.453125 C 59.183594 35.640625 59.109375 35.832031 59.039062 36.023438 C 58.898438 36.023438 58.753906 36.023438 58.609375 36.023438 C 58.535156 35.949219 58.464844 35.875 58.390625 35.796875 C 58.175781 35.722656 57.960938 35.644531 57.738281 35.570312 C 58.28125 35.484375 58.683594 35.453125 59.257812 35.453125 Z M 59.257812 35.453125 "/>
</g>
</svg>
