<?xml version="1.0" encoding="UTF-8"?>
<svg xmlns="http://www.w3.org/2000/svg" xmlns:xlink="http://www.w3.org/1999/xlink" width="153px" height="80px" viewBox="0 0 153 80" version="1.1">
<g id="surface1">
<path style=" stroke:none;fill-rule:nonzero;fill:rgb(84.313726%,20.392157%,70.19608%);fill-opacity:1;" d="M 113.519531 26.5625 C 115.921875 26.5625 118.328125 26.5625 120.800781 26.5625 C 120.898438 28.828125 121.003906 31.105469 121.105469 33.4375 C 121.300781 33.4375 121.5 33.4375 121.710938 33.4375 C 121.820312 33.300781 121.820312 33.300781 121.933594 33.160156 C 122.882812 32.257812 124.164062 31.96875 125.960938 31.675781 C 128.789062 31.257812 131.144531 31.667969 133.847656 32.160156 C 133.847656 32.261719 133.847656 32.371094 133.847656 32.476562 C 134.027344 32.496094 134.199219 32.507812 134.390625 32.527344 C 135.714844 32.75 136.429688 33.328125 137.1875 33.921875 C 138.398438 35.386719 138.554688 36.792969 138.476562 38.371094 C 138.472656 38.574219 138.46875 38.777344 138.457031 38.992188 C 138.445312 39.484375 138.417969 39.988281 138.402344 40.484375 C 138.582031 40.496094 138.753906 40.515625 138.9375 40.53125 C 140.371094 40.6875 141.515625 40.859375 142.761719 41.277344 C 143.007812 41.363281 143.257812 41.449219 143.507812 41.527344 C 144.035156 41.707031 144.558594 41.898438 145.078125 42.078125 C 145.078125 42.1875 145.078125 42.292969 145.078125 42.398438 C 145.269531 42.398438 145.472656 42.398438 145.683594 42.398438 C 145.683594 42.503906 145.683594 42.609375 145.683594 42.71875 C 145.886719 42.71875 146.082031 42.71875 146.289062 42.71875 C 146.492188 42.984375 146.695312 43.242188 146.890625 43.515625 C 147.09375 43.515625 147.296875 43.515625 147.503906 43.515625 C 147.75 43.757812 147.984375 43.996094 148.222656 44.238281 C 148.355469 44.375 148.492188 44.507812 148.628906 44.644531 C 150.210938 46.566406 150.140625 48.925781 148.820312 50.878906 C 148.140625 51.675781 147.339844 52.4375 146.289062 53.121094 C 146.085938 53.121094 145.890625 53.121094 145.683594 53.121094 C 145.683594 53.226562 145.683594 53.332031 145.683594 53.4375 C 145.480469 53.4375 145.289062 53.4375 145.078125 53.4375 C 145.078125 53.546875 145.078125 53.648438 145.078125 53.757812 C 144.875 53.757812 144.671875 53.757812 144.464844 53.757812 C 144.464844 53.863281 144.464844 53.96875 144.464844 54.074219 C 140.691406 55.796875 136.027344 56.214844 131.230469 56.1875 C 130.878906 56.1875 130.523438 56.1875 130.15625 56.1875 C 128.390625 56.183594 126.636719 56.15625 124.875 56.082031 C 122.09375 55.980469 119.316406 55.960938 116.535156 55.933594 C 114.886719 55.914062 113.242188 55.898438 111.59375 55.878906 C 111.085938 55.875 111.085938 55.875 110.5625 55.871094 C 104.882812 55.820312 99.214844 55.730469 93.546875 55.636719 C 92.203125 55.621094 90.867188 55.597656 89.519531 55.582031 C 82.609375 55.480469 75.699219 55.371094 68.792969 55.195312 C 68.402344 55.183594 68.402344 55.183594 67.996094 55.175781 C 65.050781 55.101562 62.121094 55.007812 59.179688 54.882812 C 58.929688 54.867188 58.679688 54.859375 58.421875 54.851562 C 57.871094 54.820312 57.328125 54.765625 56.773438 54.722656 C 56.675781 54.617188 56.574219 54.507812 56.472656 54.402344 C 57.472656 54.195312 58.46875 53.992188 59.472656 53.789062 C 59.753906 53.738281 60.023438 53.675781 60.316406 53.617188 C 61.902344 53.296875 63.488281 53.007812 65.121094 52.769531 C 65.941406 52.636719 65.941406 52.636719 66.898438 52.40625 C 67.960938 52.175781 69.035156 51.96875 70.128906 51.78125 C 70.421875 51.730469 70.421875 51.730469 70.710938 51.675781 C 71.539062 51.535156 72.355469 51.390625 73.167969 51.253906 C 73.78125 51.148438 74.382812 51.046875 74.984375 50.9375 C 75.339844 50.875 75.695312 50.820312 76.066406 50.753906 C 77.140625 50.554688 78.183594 50.316406 79.230469 50.078125 C 79.84375 49.960938 80.460938 49.851562 81.070312 49.734375 C 81.425781 49.679688 81.773438 49.617188 82.132812 49.550781 C 82.6875 49.449219 82.6875 49.449219 83.253906 49.347656 C 86.734375 48.722656 90.203125 48.0625 93.648438 47.382812 C 93.96875 47.320312 94.289062 47.253906 94.617188 47.1875 C 95.039062 47.109375 95.039062 47.109375 95.476562 47.015625 C 96.121094 46.898438 96.761719 46.800781 97.441406 46.726562 C 97.136719 46.679688 96.847656 46.644531 96.535156 46.609375 C 94.105469 46.3125 92.105469 45.980469 90.148438 45.117188 C 89.976562 45.042969 89.800781 44.972656 89.625 44.894531 C 88.371094 44.304688 87.566406 43.578125 87.117188 42.71875 C 87.117188 42.355469 87.117188 41.980469 87.117188 41.601562 C 89.621094 41.601562 92.121094 41.601562 94.703125 41.601562 C 95.003906 42.230469 95.003906 42.230469 95.3125 42.878906 C 95.515625 42.878906 95.71875 42.878906 95.917969 42.878906 C 95.917969 42.988281 95.917969 43.089844 95.917969 43.199219 C 97.078125 43.398438 98.199219 43.378906 99.414062 43.378906 C 99.808594 43.378906 100.203125 43.378906 100.613281 43.378906 C 101.789062 43.367188 101.789062 43.367188 102.898438 43.199219 C 103.1875 42.742188 103.230469 42.453125 103.222656 41.96875 C 103.21875 41.839844 103.21875 41.707031 103.214844 41.574219 C 103.210938 41.484375 103.210938 41.382812 103.195312 41.277344 C 101.46875 41.003906 99.75 40.789062 97.972656 40.632812 C 94.699219 40.359375 91.148438 39.976562 88.941406 38.554688 C 87.617188 37.511719 87.429688 36.425781 87.726562 35.199219 C 88.277344 33.984375 89.71875 33.164062 91.664062 32.476562 C 95.871094 31.425781 99.980469 31.175781 104.414062 32.003906 C 105.140625 32.148438 105.84375 32.304688 106.535156 32.476562 C 106.535156 32.582031 106.535156 32.695312 106.535156 32.804688 C 106.757812 32.824219 106.980469 32.859375 107.199219 32.886719 C 108.605469 33.265625 109.238281 33.917969 109.96875 34.628906 C 110.183594 35.039062 110.183594 35.039062 110.183594 36.320312 C 107.976562 36.320312 105.777344 36.320312 103.503906 36.320312 C 103.210938 36.003906 102.902344 35.6875 102.589844 35.359375 C 101.5 34.820312 100.613281 34.730469 99.144531 34.6875 C 98.046875 34.722656 97.242188 34.828125 96.226562 35.039062 C 95.917969 35.09375 95.621094 35.144531 95.3125 35.199219 C 95.3125 35.671875 95.3125 36.148438 95.3125 36.636719 C 97.101562 37.007812 98.828125 37.195312 100.71875 37.355469 C 103.753906 37.601562 107.230469 37.894531 109.574219 39.039062 C 110.988281 40.144531 111.28125 41.246094 111.089844 42.5625 C 110.777344 43.273438 110.351562 43.863281 109.574219 44.480469 C 109.804688 44.4375 110.039062 44.382812 110.28125 44.339844 C 110.589844 44.28125 110.886719 44.226562 111.203125 44.164062 C 111.511719 44.101562 111.804688 44.039062 112.121094 43.984375 C 112.914062 43.832031 112.914062 43.832031 113.519531 43.832031 C 113.519531 38.132812 113.519531 32.433594 113.519531 26.5625 Z M 122.929688 35.519531 C 121.285156 36.550781 121.066406 37.558594 121.074219 38.867188 C 121.078125 39.070312 121.078125 39.28125 121.078125 39.492188 C 121.078125 39.710938 121.082031 39.925781 121.082031 40.140625 C 121.085938 40.359375 121.085938 40.578125 121.085938 40.796875 C 121.089844 41.328125 121.101562 41.867188 121.105469 42.398438 C 123.328125 42.070312 125.5 41.671875 127.664062 41.25 C 127.972656 41.1875 128.277344 41.136719 128.589844 41.070312 C 129.332031 40.929688 130.074219 40.789062 130.816406 40.636719 C 130.84375 40.074219 130.851562 39.511719 130.875 38.949219 C 130.878906 38.792969 130.886719 38.636719 130.890625 38.472656 C 130.914062 37.511719 130.792969 36.835938 129.902344 36 C 128.472656 35.285156 127.335938 35.164062 125.4375 35.175781 C 124.449219 35.207031 123.792969 35.269531 122.929688 35.519531 Z M 122.929688 35.519531 "/>
<path style=" stroke:none;fill-rule:nonzero;fill:rgb(95.686275%,95.686275%,95.686275%);fill-opacity:1;" d="M 36.941406 27.875 C 38.214844 28.375 39.40625 28.945312 40.394531 29.605469 C 40.394531 29.757812 40.394531 29.921875 40.394531 30.078125 C 40.597656 30.078125 40.792969 30.078125 40.996094 30.078125 C 41.207031 30.339844 41.410156 30.601562 41.601562 30.871094 C 41.722656 31.011719 41.835938 31.167969 41.945312 31.316406 C 42.214844 31.839844 42.214844 31.839844 42.214844 33.273438 C 39.703125 33.273438 37.203125 33.273438 34.625 33.273438 C 34.21875 32.640625 33.820312 32.003906 33.410156 31.359375 C 32.898438 31.191406 32.898438 31.191406 32.199219 31.042969 C 31.863281 30.933594 31.535156 30.824219 31.191406 30.707031 C 29.148438 30.09375 26.566406 30.101562 24.292969 30.359375 C 22.523438 30.621094 21.117188 31.015625 20.066406 31.839844 C 19.863281 31.839844 19.660156 31.839844 19.453125 31.839844 C 19.378906 31.957031 19.300781 32.085938 19.226562 32.222656 C 18.921875 32.683594 18.585938 33.125 18.21875 33.578125 C 17.691406 34.28125 17.390625 34.929688 17.328125 35.683594 C 17.320312 35.84375 17.300781 36.011719 17.289062 36.183594 C 17.191406 37.976562 17.589844 39.605469 19.453125 41.117188 C 19.453125 41.226562 19.453125 41.328125 19.453125 41.445312 C 19.65625 41.445312 19.859375 41.445312 20.066406 41.445312 C 20.398438 41.625 20.398438 41.625 20.742188 41.808594 C 22.464844 42.699219 24.046875 42.808594 26.363281 42.804688 C 26.625 42.804688 26.898438 42.804688 27.175781 42.804688 C 29.273438 42.773438 30.753906 42.539062 32.507812 41.917969 C 32.800781 41.871094 33.105469 41.8125 33.410156 41.761719 C 33.71875 41.414062 33.71875 41.414062 34.023438 40.960938 C 34.324219 40.628906 34.636719 40.308594 34.957031 39.976562 C 35.269531 39.652344 35.269531 39.652344 35.539062 39.199219 C 32.835938 39.199219 30.128906 39.199219 27.34375 39.199219 C 27.34375 38.136719 27.34375 37.085938 27.34375 36 C 32.351562 36 37.363281 36 42.515625 36 C 42.515625 39.328125 42.515625 42.648438 42.515625 46.078125 C 40.917969 46.078125 39.308594 46.078125 37.660156 46.078125 C 37.558594 45.554688 37.464844 45.023438 37.363281 44.480469 C 36.625 44.445312 36.625 44.445312 35.859375 44.917969 C 32.949219 46.25 28.617188 46.847656 24.796875 46.765625 C 19.621094 46.480469 15.609375 45.378906 12.171875 43.320312 C 9.078125 41.203125 8.046875 38.128906 8.601562 35.519531 C 9.292969 32.707031 11.15625 30.308594 15.390625 28.441406 C 16.671875 27.945312 18 27.546875 19.453125 27.195312 C 19.730469 27.128906 20.003906 27.070312 20.285156 27.003906 C 25.5625 25.941406 32.210938 26.273438 36.941406 27.875 Z M 36.941406 27.875 "/>
<path style=" stroke:none;fill-rule:nonzero;fill:rgb(97.254902%,96.862745%,97.254902%);fill-opacity:1;" d="M 113.519531 26.5625 C 115.921875 26.5625 118.328125 26.5625 120.800781 26.5625 C 120.898438 28.828125 121.003906 31.105469 121.105469 33.4375 C 121.300781 33.4375 121.5 33.4375 121.710938 33.4375 C 121.785156 33.355469 121.859375 33.257812 121.933594 33.160156 C 122.882812 32.257812 124.164062 31.96875 125.960938 31.675781 C 128.789062 31.257812 131.144531 31.667969 133.847656 32.160156 C 133.847656 32.261719 133.847656 32.371094 133.847656 32.476562 C 134.023438 32.496094 134.199219 32.507812 134.390625 32.523438 C 135.234375 32.671875 135.5625 32.859375 136.148438 33.207031 C 136.3125 33.308594 136.488281 33.414062 136.679688 33.515625 C 138.351562 34.832031 138.210938 36.183594 138.1875 37.703125 C 138.1875 37.949219 138.1875 38.191406 138.1875 38.433594 C 138.175781 39.0625 138.164062 39.695312 138.160156 40.324219 C 138.152344 40.980469 138.140625 41.628906 138.136719 42.269531 C 138.128906 43.542969 138.117188 44.816406 138.09375 46.078125 C 135.785156 46.078125 133.488281 46.078125 131.109375 46.078125 C 131.101562 45.820312 131.089844 45.550781 131.074219 45.273438 C 131.023438 44.292969 130.964844 43.300781 130.910156 42.316406 C 130.882812 41.882812 130.859375 41.457031 130.839844 41.03125 C 130.808594 40.417969 130.773438 39.800781 130.738281 39.191406 C 130.71875 38.996094 130.710938 38.8125 130.707031 38.613281 C 130.617188 37.007812 130.617188 37.007812 128.992188 35.699219 C 127.328125 35.203125 125.546875 35.324219 123.707031 35.394531 C 122.898438 35.480469 122.898438 35.480469 122.546875 35.808594 C 122.472656 35.929688 122.390625 36.042969 122.316406 36.167969 C 122.160156 36.3125 122.160156 36.3125 121.996094 36.457031 C 121.636719 36.882812 121.527344 37.300781 121.40625 37.753906 C 121.210938 37.753906 121.007812 37.753906 120.800781 37.753906 C 120.800781 40.453125 120.800781 43.148438 120.800781 45.925781 C 118.5 45.925781 116.195312 45.925781 113.824219 45.925781 C 113.527344 41.832031 113.480469 37.746094 113.496094 33.648438 C 113.496094 32.851562 113.507812 32.046875 113.507812 31.246094 C 113.507812 29.683594 113.511719 28.121094 113.519531 26.5625 Z M 113.519531 26.5625 "/>
<path style=" stroke:none;fill-rule:nonzero;fill:rgb(94.117647%,93.725491%,93.725491%);fill-opacity:1;" d="M 106.535156 32.476562 C 106.535156 32.582031 106.535156 32.695312 106.535156 32.804688 C 106.867188 32.847656 106.867188 32.847656 107.199219 32.886719 C 108.605469 33.265625 109.238281 33.917969 109.96875 34.628906 C 110.183594 35.039062 110.183594 35.039062 110.183594 36.320312 C 107.976562 36.320312 105.777344 36.320312 103.503906 36.320312 C 103.210938 36.003906 102.902344 35.6875 102.589844 35.359375 C 101.5 34.820312 100.613281 34.730469 99.144531 34.6875 C 98.046875 34.722656 97.242188 34.828125 96.226562 35.039062 C 95.917969 35.09375 95.621094 35.144531 95.3125 35.199219 C 95.3125 35.671875 95.3125 36.148438 95.3125 36.636719 C 97.101562 37.007812 98.828125 37.195312 100.71875 37.355469 C 103.753906 37.601562 107.230469 37.894531 109.574219 39.039062 C 111.105469 40.242188 111.46875 41.554688 110.941406 42.960938 C 110.488281 43.773438 109.910156 44.261719 108.664062 44.800781 C 108.492188 44.882812 108.316406 44.957031 108.144531 45.039062 C 105.328125 46.257812 102.339844 46.503906 98.78125 46.484375 C 98.257812 46.488281 98.257812 46.488281 97.722656 46.488281 C 94.222656 46.484375 91.835938 46 89.300781 44.722656 C 87.613281 43.707031 87.117188 42.953125 87.117188 41.601562 C 89.621094 41.601562 92.121094 41.601562 94.703125 41.601562 C 94.898438 42.019531 95.105469 42.441406 95.3125 42.878906 C 95.515625 42.878906 95.71875 42.878906 95.917969 42.878906 C 95.917969 42.988281 95.917969 43.089844 95.917969 43.199219 C 97.078125 43.398438 98.199219 43.378906 99.414062 43.378906 C 99.808594 43.378906 100.203125 43.378906 100.613281 43.378906 C 101.789062 43.367188 101.789062 43.367188 102.898438 43.199219 C 103.1875 42.742188 103.230469 42.453125 103.222656 41.96875 C 103.21875 41.839844 103.21875 41.707031 103.214844 41.574219 C 103.210938 41.484375 103.210938 41.382812 103.195312 41.277344 C 101.46875 41.003906 99.75 40.789062 97.972656 40.632812 C 94.699219 40.359375 91.148438 39.976562 88.941406 38.554688 C 87.617188 37.511719 87.429688 36.425781 87.726562 35.199219 C 88.277344 33.984375 89.71875 33.164062 91.664062 32.476562 C 96.722656 31.210938 101.484375 31.238281 106.535156 32.476562 Z M 106.535156 32.476562 "/>
<path style=" stroke:none;fill-rule:nonzero;fill:rgb(97.647059%,97.647059%,97.254902%);fill-opacity:1;" d="M 74.378906 31.675781 C 74.675781 31.839844 74.675781 31.839844 74.710938 32.226562 C 74.710938 32.390625 74.710938 32.5625 74.710938 32.734375 C 74.707031 32.914062 74.707031 33.089844 74.707031 33.273438 C 74.703125 33.554688 74.703125 33.554688 74.703125 33.851562 C 74.699219 34.039062 74.699219 34.234375 74.699219 34.421875 C 74.695312 34.894531 74.679688 35.371094 74.675781 35.835938 C 74.457031 35.835938 74.238281 35.835938 74 35.832031 C 73.710938 35.832031 73.40625 35.832031 73.097656 35.832031 C 72.664062 35.828125 72.664062 35.828125 72.210938 35.828125 C 70.058594 35.859375 68.234375 36.136719 66.484375 36.800781 C 65.3125 37.695312 65.429688 38.621094 65.421875 39.675781 C 65.417969 39.859375 65.414062 40.039062 65.398438 40.234375 C 65.386719 40.808594 65.378906 41.394531 65.367188 41.980469 C 65.359375 42.371094 65.351562 42.773438 65.332031 43.167969 C 65.3125 44.136719 65.292969 45.109375 65.273438 46.078125 C 62.777344 46.078125 60.261719 46.078125 57.6875 46.078125 C 57.6875 41.429688 57.6875 36.792969 57.6875 32.003906 C 60.089844 32.003906 62.496094 32.003906 64.96875 32.003906 C 65.171875 32.527344 65.367188 33.054688 65.574219 33.605469 C 65.777344 33.441406 65.980469 33.289062 66.1875 33.121094 C 66.378906 33.121094 66.582031 33.121094 66.792969 33.121094 C 66.792969 33.015625 66.792969 32.914062 66.792969 32.804688 C 69.363281 32.074219 71.40625 31.605469 74.378906 31.675781 Z M 74.378906 31.675781 "/>
<path style=" stroke:none;fill-rule:nonzero;fill:rgb(93.725491%,93.725491%,93.333334%);fill-opacity:1;" d="M 77.105469 32.003906 C 79.707031 32.003906 82.308594 32.003906 85 32.003906 C 85 36.640625 85 41.292969 85 46.078125 C 82.398438 46.078125 79.792969 46.078125 77.105469 46.078125 C 77.105469 41.429688 77.105469 36.792969 77.105469 32.003906 Z M 77.105469 32.003906 "/>
<path style=" stroke:none;fill-rule:nonzero;fill:rgb(94.901961%,94.901961%,94.901961%);fill-opacity:1;" d="M 46.464844 32.003906 C 48.964844 32.003906 51.46875 32.003906 54.042969 32.003906 C 54.042969 36.640625 54.042969 41.292969 54.042969 46.078125 C 51.542969 46.078125 49.039062 46.078125 46.464844 46.078125 C 46.464844 41.429688 46.464844 36.792969 46.464844 32.003906 Z M 46.464844 32.003906 "/>
<path style=" stroke:none;fill-rule:nonzero;fill:rgb(90.588236%,90.588236%,90.588236%);fill-opacity:1;" d="M 78.144531 26.539062 C 78.613281 26.539062 78.613281 26.539062 79.097656 26.550781 C 79.445312 26.550781 79.78125 26.550781 80.128906 26.550781 C 80.496094 26.550781 80.851562 26.550781 81.222656 26.554688 C 81.585938 26.554688 81.945312 26.554688 82.308594 26.554688 C 83.210938 26.554688 84.097656 26.558594 85 26.5625 C 85 27.773438 85 28.992188 85 30.242188 C 82.398438 30.242188 79.792969 30.242188 77.105469 30.242188 C 77.097656 29.660156 77.09375 29.085938 77.089844 28.496094 C 77.089844 28.304688 77.085938 28.125 77.085938 27.941406 C 77.074219 27.800781 77.074219 27.648438 77.074219 27.503906 C 77.074219 27.359375 77.074219 27.214844 77.070312 27.058594 C 77.121094 26.570312 77.210938 26.5625 78.144531 26.539062 Z M 78.144531 26.539062 "/>
<path style=" stroke:none;fill-rule:nonzero;fill:rgb(99.607843%,99.607843%,99.607843%);fill-opacity:1;" d="M 46.464844 26.5625 C 47.667969 26.558594 48.871094 26.554688 50.085938 26.554688 C 50.425781 26.550781 50.769531 26.550781 51.125 26.550781 C 51.460938 26.550781 51.785156 26.550781 52.125 26.550781 C 52.582031 26.539062 52.582031 26.539062 53.042969 26.539062 C 53.742188 26.5625 53.742188 26.5625 54.042969 26.726562 C 54.070312 26.980469 54.074219 27.246094 54.074219 27.503906 C 54.074219 27.644531 54.070312 27.789062 54.070312 27.941406 C 54.070312 28.121094 54.066406 28.300781 54.066406 28.496094 C 54.0625 29.066406 54.046875 29.644531 54.042969 30.242188 C 51.542969 30.242188 49.039062 30.242188 46.464844 30.242188 C 46.464844 29.023438 46.464844 27.8125 46.464844 26.5625 Z M 46.464844 26.5625 "/>
<path style=" stroke:none;fill-rule:nonzero;fill:rgb(68.627453%,23.529412%,42.352942%);fill-opacity:1;" d="M 138.09375 36 C 138.195312 36 138.296875 36 138.402344 36 C 138.402344 37.476562 138.402344 38.957031 138.402344 40.484375 C 139.300781 40.585938 140.199219 40.691406 141.125 40.800781 C 142.027344 41.03125 142.027344 41.03125 142.761719 41.277344 C 143.128906 41.398438 143.128906 41.398438 143.507812 41.527344 C 144.035156 41.707031 144.558594 41.898438 145.078125 42.078125 C 145.078125 42.1875 145.078125 42.292969 145.078125 42.398438 C 145.269531 42.398438 145.472656 42.398438 145.683594 42.398438 C 145.683594 42.503906 145.683594 42.609375 145.683594 42.71875 C 145.886719 42.71875 146.082031 42.71875 146.289062 42.71875 C 146.492188 42.984375 146.695312 43.242188 146.890625 43.515625 C 147.09375 43.515625 147.296875 43.515625 147.503906 43.515625 C 147.75 43.757812 147.984375 43.996094 148.222656 44.238281 C 148.355469 44.375 148.492188 44.507812 148.628906 44.644531 C 149.484375 45.6875 149.738281 46.671875 149.738281 47.789062 C 149.738281 47.980469 149.738281 47.980469 149.738281 48.167969 C 149.703125 49.3125 149.210938 50.289062 148.40625 51.359375 C 148.214844 51.203125 148.011719 51.042969 147.804688 50.878906 C 147.945312 50.589844 147.945312 50.589844 148.222656 50.242188 C 148.757812 49.382812 148.8125 48.578125 148.8125 47.695312 C 148.8125 47.558594 148.8125 47.425781 148.816406 47.28125 C 148.816406 46.480469 148.816406 46.480469 148.113281 45.761719 C 147.804688 45.835938 147.804688 45.835938 147.503906 45.925781 C 147.503906 45.550781 147.503906 45.179688 147.503906 44.800781 C 147.097656 44.75 146.703125 44.691406 146.289062 44.640625 C 146.492188 44.539062 146.695312 44.433594 146.890625 44.316406 C 146.699219 44.058594 146.496094 43.792969 146.289062 43.515625 C 145.585938 43.515625 144.886719 43.515625 144.167969 43.515625 C 144.269531 43.152344 144.363281 42.777344 144.464844 42.398438 C 144.269531 42.398438 144.066406 42.398438 143.859375 42.398438 C 143.859375 42.292969 143.859375 42.1875 143.859375 42.078125 C 143.359375 42.023438 142.863281 41.976562 142.34375 41.917969 C 142.199219 42.078125 142.199219 42.078125 142.039062 42.246094 C 141.84375 42.128906 141.640625 42.023438 141.433594 41.917969 C 141.535156 41.871094 141.636719 41.8125 141.742188 41.761719 C 141.496094 41.710938 141.25 41.667969 141.003906 41.621094 C 140.226562 41.445312 140.226562 41.445312 139.917969 41.117188 C 139.714844 41.226562 139.511719 41.328125 139.3125 41.445312 C 139.210938 41.328125 139.109375 41.226562 139.003906 41.117188 C 138.90625 42.808594 138.804688 44.503906 138.703125 46.242188 C 136.308594 46.421875 136.308594 46.421875 135.175781 46.382812 C 134.933594 46.367188 134.695312 46.363281 134.449219 46.359375 C 134.203125 46.351562 133.96875 46.332031 133.710938 46.328125 C 133.460938 46.320312 133.210938 46.316406 132.953125 46.308594 C 132.339844 46.285156 131.730469 46.257812 131.109375 46.242188 C 131.109375 46.1875 131.109375 46.136719 131.109375 46.078125 C 133.417969 46.078125 135.726562 46.078125 138.09375 46.078125 C 138.09375 42.75 138.09375 39.433594 138.09375 36 Z M 138.09375 36 "/>
<path style=" stroke:none;fill-rule:nonzero;fill:rgb(79.607844%,8.235294%,80.784315%);fill-opacity:1;" d="M 81.046875 49.921875 C 81.046875 50.027344 81.046875 50.132812 81.046875 50.242188 C 79.339844 50.800781 77.550781 51.25 75.589844 51.519531 C 75.292969 51.46875 74.988281 51.417969 74.675781 51.359375 C 74.472656 51.625 74.277344 51.882812 74.074219 52.160156 C 73.785156 52.148438 73.785156 52.148438 73.480469 52.140625 C 71.535156 52.09375 70.546875 52.234375 68.914062 52.804688 C 68.269531 52.894531 68.269531 52.894531 67.703125 52.957031 C 67.4375 53.015625 67.1875 53.066406 66.929688 53.128906 C 66.1875 53.273438 66.1875 53.273438 65.273438 53.273438 C 65.175781 53.390625 65.070312 53.496094 64.96875 53.605469 C 64.296875 53.691406 63.605469 53.773438 62.925781 53.832031 C 61.617188 53.980469 60.425781 54.121094 59.203125 54.402344 C 59.203125 54.507812 59.203125 54.613281 59.203125 54.722656 C 58.402344 54.722656 57.597656 54.722656 56.773438 54.722656 C 56.675781 54.617188 56.574219 54.507812 56.472656 54.402344 C 57.472656 54.195312 58.46875 53.992188 59.472656 53.789062 C 59.894531 53.707031 59.894531 53.707031 60.316406 53.617188 C 61.902344 53.296875 63.488281 53.007812 65.121094 52.769531 C 65.941406 52.636719 65.941406 52.636719 66.898438 52.40625 C 67.960938 52.175781 69.035156 51.96875 70.128906 51.78125 C 70.320312 51.746094 70.515625 51.707031 70.710938 51.675781 C 71.539062 51.535156 72.355469 51.390625 73.167969 51.253906 C 73.78125 51.148438 74.382812 51.046875 74.984375 50.9375 C 75.339844 50.875 75.695312 50.820312 76.066406 50.753906 C 77.144531 50.554688 78.183594 50.320312 79.230469 50.078125 C 79.882812 49.976562 80.371094 49.921875 81.046875 49.921875 Z M 81.046875 49.921875 "/>
<path style=" stroke:none;fill-rule:nonzero;fill:rgb(63.921571%,63.921571%,63.921571%);fill-opacity:1;" d="M 57.6875 32.003906 C 60.089844 32.003906 62.496094 32.003906 64.96875 32.003906 C 65.613281 34.019531 65.613281 34.019531 65.273438 34.558594 C 65.070312 34.558594 64.867188 34.558594 64.660156 34.558594 C 64.660156 33.761719 64.660156 32.980469 64.660156 32.160156 C 62.464844 32.160156 60.257812 32.160156 57.996094 32.160156 C 57.996094 36.699219 57.996094 41.242188 57.996094 45.925781 C 60.292969 45.925781 62.601562 45.925781 64.96875 45.925781 C 64.96875 43.273438 64.96875 40.636719 64.96875 37.921875 C 65.070312 37.921875 65.171875 37.921875 65.273438 37.921875 C 65.273438 40.617188 65.273438 43.304688 65.273438 46.078125 C 62.777344 46.078125 60.261719 46.078125 57.6875 46.078125 C 57.6875 41.429688 57.6875 36.792969 57.6875 32.003906 Z M 57.6875 32.003906 "/>
<path style=" stroke:none;fill-rule:nonzero;fill:rgb(66.666669%,31.764707%,49.803922%);fill-opacity:1;" d="M 120.800781 37.753906 C 120.898438 37.753906 121.003906 37.753906 121.105469 37.753906 C 121.105469 39.296875 121.105469 40.824219 121.105469 42.398438 C 124.308594 41.765625 127.511719 41.136719 130.816406 40.484375 C 131.214844 40.902344 131.019531 41.144531 130.816406 41.601562 C 130.667969 41.363281 130.667969 41.363281 130.507812 41.117188 C 129.597656 41.277344 129.3125 41.394531 128.695312 41.761719 C 128.890625 41.8125 129.09375 41.867188 129.300781 41.917969 C 128.800781 42.019531 128.292969 42.128906 127.785156 42.246094 C 127.785156 42.128906 127.785156 42.023438 127.785156 41.917969 C 127.609375 41.941406 127.441406 41.96875 127.265625 41.988281 C 126.277344 42.117188 125.273438 42.210938 124.269531 42.300781 C 123.542969 42.394531 122.972656 42.535156 122.316406 42.71875 C 122.316406 42.820312 122.316406 42.929688 122.316406 43.042969 C 121.863281 43.121094 121.863281 43.121094 121.40625 43.199219 C 121.40625 43.515625 121.40625 43.84375 121.421875 44.167969 C 121.421875 44.347656 121.425781 44.539062 121.425781 44.722656 C 121.429688 44.898438 121.429688 45.082031 121.433594 45.273438 C 121.40625 45.761719 121.40625 45.761719 121.105469 46.242188 C 118.59375 46.242188 116.09375 46.242188 113.519531 46.242188 C 113.519531 46.1875 113.519531 46.136719 113.519531 46.078125 C 115.921875 46.078125 118.328125 46.078125 120.800781 46.078125 C 120.800781 43.332031 120.800781 40.585938 120.800781 37.753906 Z M 120.800781 37.753906 "/>
<path style=" stroke:none;fill-rule:nonzero;fill:rgb(61.56863%,11.764706%,60.000002%);fill-opacity:1;" d="M 59.203125 54.722656 C 62.082031 54.714844 64.960938 54.710938 67.828125 54.710938 C 68.050781 54.710938 68.261719 54.710938 68.476562 54.710938 C 74.894531 54.699219 81.3125 54.730469 87.726562 54.882812 C 87.882812 55.039062 87.882812 55.039062 88.03125 55.199219 C 81.796875 55.542969 75.519531 55.371094 69.269531 55.207031 C 69.003906 55.203125 68.726562 55.199219 68.445312 55.183594 C 65.359375 55.109375 62.285156 55.011719 59.203125 54.882812 C 59.203125 54.824219 59.203125 54.769531 59.203125 54.722656 Z M 59.203125 54.722656 "/>
<path style=" stroke:none;fill-rule:nonzero;fill:rgb(64.313728%,64.313728%,63.921571%);fill-opacity:1;" d="M 27.34375 36 C 32.351562 36 37.363281 36 42.515625 36 C 42.515625 39.328125 42.515625 42.648438 42.515625 46.078125 C 40.917969 46.078125 39.308594 46.078125 37.660156 46.078125 C 37.589844 45.683594 37.519531 45.277344 37.449219 44.882812 C 37.375 44.453125 37.375 44.453125 37.054688 44 C 37.203125 43.84375 37.203125 43.84375 37.363281 43.679688 C 37.558594 43.679688 37.757812 43.679688 37.964844 43.679688 C 37.964844 44.417969 37.964844 45.164062 37.964844 45.925781 C 39.367188 45.925781 40.769531 45.925781 42.214844 45.925781 C 42.214844 42.699219 42.214844 39.480469 42.214844 36.167969 C 37.40625 36.167969 32.597656 36.167969 27.644531 36.167969 C 27.644531 37.113281 27.644531 38.058594 27.644531 39.039062 C 30.347656 39.039062 33.050781 39.039062 35.847656 39.039062 C 35.742188 39.246094 35.640625 39.457031 35.539062 39.683594 C 35.539062 39.519531 35.539062 39.367188 35.539062 39.199219 C 32.835938 39.199219 30.128906 39.199219 27.34375 39.199219 C 27.34375 38.136719 27.34375 37.085938 27.34375 36 Z M 27.34375 36 "/>
<path style=" stroke:none;fill-rule:nonzero;fill:rgb(61.56863%,17.254902%,58.823532%);fill-opacity:1;" d="M 88.339844 55.359375 C 91.730469 55.355469 95.132812 55.351562 98.539062 55.351562 C 100.117188 55.351562 101.699219 55.351562 103.277344 55.347656 C 116.714844 55.335938 116.714844 55.335938 122.316406 55.519531 C 122.316406 55.625 122.316406 55.730469 122.316406 55.835938 C 113.859375 55.878906 105.410156 55.828125 96.964844 55.683594 C 96.746094 55.671875 96.53125 55.671875 96.304688 55.667969 C 93.648438 55.621094 90.988281 55.566406 88.339844 55.519531 C 88.339844 55.460938 88.339844 55.417969 88.339844 55.359375 Z M 88.339844 55.359375 "/>
<path style=" stroke:none;fill-rule:nonzero;fill:rgb(59.607846%,24.705882%,39.215687%);fill-opacity:1;" d="M 138.09375 36 C 138.195312 36 138.296875 36 138.402344 36 C 138.402344 37.476562 138.402344 38.957031 138.402344 40.484375 C 139.300781 40.585938 140.199219 40.691406 141.125 40.800781 C 142.210938 41.054688 142.210938 41.054688 142.949219 41.277344 C 142.949219 41.328125 142.949219 41.386719 142.949219 41.445312 C 142.039062 41.445312 141.125 41.445312 140.226562 41.445312 C 140.121094 41.328125 140.023438 41.226562 139.917969 41.117188 C 139.714844 41.226562 139.511719 41.328125 139.3125 41.445312 C 139.210938 41.328125 139.109375 41.226562 139.003906 41.117188 C 138.90625 42.808594 138.804688 44.503906 138.703125 46.242188 C 136.308594 46.421875 136.308594 46.421875 135.175781 46.382812 C 134.933594 46.367188 134.695312 46.363281 134.449219 46.359375 C 134.203125 46.351562 133.96875 46.332031 133.710938 46.328125 C 133.460938 46.320312 133.210938 46.316406 132.953125 46.308594 C 132.339844 46.285156 131.730469 46.257812 131.109375 46.242188 C 131.109375 46.1875 131.109375 46.136719 131.109375 46.078125 C 133.417969 46.078125 135.726562 46.078125 138.09375 46.078125 C 138.09375 42.75 138.09375 39.433594 138.09375 36 Z M 138.09375 36 "/>
<path style=" stroke:none;fill-rule:nonzero;fill:rgb(66.274512%,65.882355%,65.882355%);fill-opacity:1;" d="M 46.464844 26.5625 C 47.667969 26.558594 48.871094 26.554688 50.085938 26.554688 C 50.425781 26.550781 50.769531 26.550781 51.125 26.550781 C 51.460938 26.550781 51.785156 26.550781 52.125 26.550781 C 52.582031 26.539062 52.582031 26.539062 53.042969 26.539062 C 53.742188 26.5625 53.742188 26.5625 54.042969 26.726562 C 54.070312 26.980469 54.074219 27.246094 54.074219 27.503906 C 54.074219 27.644531 54.070312 27.789062 54.070312 27.941406 C 54.070312 28.121094 54.066406 28.300781 54.066406 28.496094 C 54.0625 29.066406 54.046875 29.644531 54.042969 30.242188 C 51.542969 30.242188 49.039062 30.242188 46.464844 30.242188 C 46.464844 30.183594 46.464844 30.136719 46.464844 30.078125 C 48.765625 30.078125 51.070312 30.078125 53.441406 30.078125 C 53.441406 29.023438 53.441406 27.960938 53.441406 26.878906 C 51.230469 26.878906 49.035156 26.878906 46.761719 26.878906 C 46.761719 27.730469 46.761719 28.570312 46.761719 29.441406 C 46.660156 29.441406 46.558594 29.441406 46.464844 29.441406 C 46.464844 28.496094 46.464844 27.539062 46.464844 26.5625 Z M 46.464844 26.5625 "/>
<path style=" stroke:none;fill-rule:nonzero;fill:rgb(78.431374%,29.411766%,59.215689%);fill-opacity:1;" d="M 113.519531 43.832031 C 113.519531 44.3125 113.519531 44.792969 113.519531 45.277344 C 113.417969 45.117188 113.316406 44.960938 113.214844 44.800781 C 112.824219 44.796875 112.4375 44.792969 112.042969 44.792969 C 111.820312 44.789062 111.597656 44.789062 111.378906 44.789062 C 110.765625 44.78125 110.765625 44.78125 110.183594 44.960938 C 109.960938 45.273438 109.757812 45.597656 109.574219 45.925781 C 109.167969 45.867188 108.773438 45.820312 108.359375 45.761719 C 108.359375 45.601562 108.359375 45.445312 108.359375 45.277344 C 108.1875 45.378906 108.027344 45.480469 107.851562 45.582031 C 107.117188 45.9375 106.585938 46.101562 105.632812 46.242188 C 105.328125 46.1875 105.023438 46.136719 104.722656 46.078125 C 105.390625 45.84375 106.0625 45.613281 106.734375 45.375 C 107.273438 45.179688 107.816406 44.976562 108.34375 44.765625 C 109.414062 44.4375 110.453125 44.269531 111.648438 44.097656 C 113.378906 43.832031 113.378906 43.832031 113.519531 43.832031 Z M 113.519531 43.832031 "/>
<path style=" stroke:none;fill-rule:nonzero;fill:rgb(75.686276%,27.058825%,44.705883%);fill-opacity:1;" d="M 130.816406 40.484375 C 131.214844 40.902344 131.019531 41.144531 130.816406 41.601562 C 130.710938 41.445312 130.613281 41.285156 130.507812 41.117188 C 129.597656 41.277344 129.3125 41.394531 128.695312 41.761719 C 128.890625 41.8125 129.09375 41.867188 129.300781 41.917969 C 128.800781 42.019531 128.292969 42.128906 127.785156 42.246094 C 127.785156 42.128906 127.785156 42.023438 127.785156 41.917969 C 127.523438 41.949219 127.523438 41.949219 127.265625 41.988281 C 125.425781 42.226562 123.621094 42.453125 121.710938 42.398438 C 122.636719 42.074219 123.460938 41.902344 124.5 41.699219 C 124.871094 41.628906 125.234375 41.558594 125.613281 41.488281 C 126 41.414062 126.390625 41.328125 126.777344 41.257812 C 127.164062 41.183594 127.550781 41.109375 127.941406 41.03125 C 128.90625 40.855469 129.859375 40.664062 130.816406 40.484375 Z M 130.816406 40.484375 "/>
<path style=" stroke:none;fill-rule:nonzero;fill:rgb(37.64706%,37.64706%,36.862746%);fill-opacity:1;" d="M 42.214844 36 C 42.316406 36 42.410156 36 42.515625 36 C 42.515625 39.328125 42.515625 42.648438 42.515625 46.078125 C 40.917969 46.078125 39.308594 46.078125 37.660156 46.078125 C 37.589844 45.683594 37.519531 45.277344 37.449219 44.882812 C 37.375 44.453125 37.375 44.453125 37.054688 44 C 37.152344 43.890625 37.257812 43.789062 37.363281 43.679688 C 37.558594 43.679688 37.757812 43.679688 37.964844 43.679688 C 37.964844 44.417969 37.964844 45.164062 37.964844 45.925781 C 39.367188 45.925781 40.769531 45.925781 42.214844 45.925781 C 42.214844 42.644531 42.214844 39.375 42.214844 36 Z M 42.214844 36 "/>
<path style=" stroke:none;fill-rule:nonzero;fill:rgb(83.529413%,11.372549%,85.490197%);fill-opacity:1;" d="M 63.144531 54.074219 C 63.144531 54.179688 63.144531 54.296875 63.144531 54.402344 C 67.054688 54.480469 67.054688 54.480469 71.039062 54.558594 C 71.039062 54.664062 71.039062 54.765625 71.039062 54.882812 C 65.179688 54.800781 65.179688 54.800781 59.203125 54.722656 C 59.203125 54.558594 59.203125 54.402344 59.203125 54.238281 C 60.621094 53.84375 61.617188 53.945312 63.144531 54.074219 Z M 63.144531 54.074219 "/>
<path style=" stroke:none;fill-rule:nonzero;fill:rgb(65.490198%,9.803922%,63.921571%);fill-opacity:1;" d="M 81.046875 49.921875 C 81.046875 50.027344 81.046875 50.132812 81.046875 50.242188 C 77.769531 51.316406 74.523438 51.644531 70.734375 51.839844 C 71.390625 51.496094 71.71875 51.429688 72.589844 51.292969 C 72.835938 51.253906 73.085938 51.214844 73.339844 51.175781 C 73.605469 51.136719 73.863281 51.085938 74.132812 51.050781 C 75.878906 50.769531 77.558594 50.476562 79.230469 50.078125 C 79.882812 49.976562 80.371094 49.921875 81.046875 49.921875 Z M 81.046875 49.921875 "/>
<path style=" stroke:none;fill-rule:nonzero;fill:rgb(67.058825%,7.843138%,68.235296%);fill-opacity:1;" d="M 65.574219 52.957031 C 65.078125 53.0625 64.578125 53.167969 64.058594 53.273438 C 64.058594 53.390625 64.058594 53.496094 64.058594 53.605469 C 63.839844 53.632812 63.609375 53.667969 63.382812 53.691406 C 62.9375 53.753906 62.9375 53.753906 62.480469 53.820312 C 62.050781 53.882812 62.050781 53.882812 61.601562 53.945312 C 60.777344 54.070312 60 54.230469 59.203125 54.402344 C 59.203125 54.507812 59.203125 54.613281 59.203125 54.722656 C 58.402344 54.722656 57.597656 54.722656 56.773438 54.722656 C 56.675781 54.617188 56.574219 54.507812 56.472656 54.402344 C 57.492188 54.195312 58.523438 53.988281 59.550781 53.777344 C 59.835938 53.722656 60.121094 53.667969 60.425781 53.605469 C 61.230469 53.441406 62.039062 53.273438 62.851562 53.121094 C 63.375 53.015625 63.375 53.015625 63.910156 52.914062 C 64.660156 52.804688 64.660156 52.804688 65.574219 52.957031 Z M 65.574219 52.957031 "/>
<path style=" stroke:none;fill-rule:nonzero;fill:rgb(77.64706%,28.235295%,44.705883%);fill-opacity:1;" d="M 141.125 41.277344 C 142.769531 41.351562 143.789062 41.535156 145.078125 42.078125 C 145.078125 42.1875 145.078125 42.292969 145.078125 42.398438 C 145.269531 42.398438 145.472656 42.398438 145.683594 42.398438 C 145.683594 42.503906 145.683594 42.609375 145.683594 42.71875 C 145.886719 42.71875 146.082031 42.71875 146.289062 42.71875 C 146.289062 42.929688 146.289062 43.136719 146.289062 43.363281 C 145.585938 43.410156 144.886719 43.464844 144.167969 43.515625 C 144.269531 43.152344 144.363281 42.777344 144.464844 42.398438 C 144.269531 42.398438 144.066406 42.398438 143.859375 42.398438 C 143.859375 42.292969 143.859375 42.1875 143.859375 42.078125 C 143.359375 42.023438 142.863281 41.976562 142.34375 41.917969 C 142.242188 42.019531 142.144531 42.128906 142.039062 42.246094 C 141.84375 42.128906 141.640625 42.023438 141.433594 41.917969 C 141.535156 41.871094 141.636719 41.8125 141.742188 41.761719 C 141.539062 41.703125 141.335938 41.65625 141.125 41.601562 C 141.125 41.496094 141.125 41.386719 141.125 41.277344 Z M 141.125 41.277344 "/>
<path style=" stroke:none;fill-rule:nonzero;fill:rgb(67.843139%,15.294118%,59.607846%);fill-opacity:1;" d="M 89.546875 48.324219 C 89.445312 48.476562 89.34375 48.636719 89.25 48.796875 C 88.945312 48.796875 88.636719 48.796875 88.339844 48.796875 C 88.234375 48.957031 88.136719 49.121094 88.03125 49.28125 C 86.230469 49.363281 86.230469 49.363281 84.386719 49.441406 C 84.386719 49.546875 84.386719 49.648438 84.386719 49.757812 C 83.285156 49.816406 82.1875 49.863281 81.046875 49.921875 C 81.90625 49.621094 82.59375 49.457031 83.558594 49.292969 C 83.871094 49.234375 84.171875 49.175781 84.488281 49.121094 C 84.808594 49.058594 85.140625 49 85.46875 48.945312 C 85.789062 48.882812 86.121094 48.820312 86.449219 48.757812 C 88.863281 48.324219 88.863281 48.324219 89.546875 48.324219 Z M 89.546875 48.324219 "/>
<path style=" stroke:none;fill-rule:nonzero;fill:rgb(66.666669%,25.098041%,48.235294%);fill-opacity:1;" d="M 149.019531 47.042969 C 149.214844 47.042969 149.417969 47.042969 149.628906 47.042969 C 149.789062 48.609375 149.453125 49.886719 148.40625 51.359375 C 148.214844 51.203125 148.011719 51.042969 147.804688 50.878906 C 147.945312 50.554688 147.945312 50.554688 148.222656 50.179688 C 148.78125 49.308594 148.78125 48.519531 148.71875 47.613281 C 148.71875 47.476562 148.714844 47.335938 148.714844 47.195312 C 148.816406 47.148438 148.917969 47.09375 149.019531 47.042969 Z M 149.019531 47.042969 "/>
<path style=" stroke:none;fill-rule:nonzero;fill:rgb(54.901963%,54.901963%,54.509807%);fill-opacity:1;" d="M 57.6875 32.003906 C 60.089844 32.003906 62.496094 32.003906 64.96875 32.003906 C 65.613281 34.019531 65.613281 34.019531 65.273438 34.558594 C 65.070312 34.558594 64.867188 34.558594 64.660156 34.558594 C 64.660156 33.761719 64.660156 32.980469 64.660156 32.160156 C 62.363281 32.160156 60.054688 32.160156 57.6875 32.160156 C 57.6875 32.109375 57.6875 32.054688 57.6875 32.003906 Z M 57.6875 32.003906 "/>
<path style=" stroke:none;fill-rule:nonzero;fill:rgb(69.803923%,23.921569%,48.235294%);fill-opacity:1;" d="M 113.519531 43.832031 C 113.519531 44.3125 113.519531 44.792969 113.519531 45.277344 C 113.417969 45.117188 113.316406 44.960938 113.214844 44.800781 C 111.808594 44.800781 110.414062 44.800781 108.960938 44.800781 C 109.269531 44.480469 109.269531 44.480469 109.941406 44.347656 C 110.214844 44.308594 110.488281 44.269531 110.769531 44.234375 C 113.4375 43.832031 113.4375 43.832031 113.519531 43.832031 Z M 113.519531 43.832031 "/>
<path style=" stroke:none;fill-rule:nonzero;fill:rgb(68.627453%,20.392157%,54.11765%);fill-opacity:1;" d="M 146.59375 51.675781 C 146.992188 51.734375 147.398438 51.792969 147.804688 51.839844 C 147.5625 52.054688 147.332031 52.265625 147.085938 52.476562 C 146.953125 52.601562 146.816406 52.71875 146.679688 52.839844 C 146.488281 52.980469 146.488281 52.980469 146.289062 53.121094 C 146.085938 53.121094 145.890625 53.121094 145.683594 53.121094 C 145.683594 53.226562 145.683594 53.332031 145.683594 53.4375 C 145.480469 53.4375 145.289062 53.4375 145.078125 53.4375 C 145.078125 53.546875 145.078125 53.648438 145.078125 53.757812 C 144.875 53.757812 144.671875 53.757812 144.464844 53.757812 C 144.464844 53.863281 144.464844 53.96875 144.464844 54.074219 C 144.269531 54.027344 144.066406 53.980469 143.859375 53.921875 C 143.859375 53.757812 143.859375 53.605469 143.859375 53.4375 C 144.359375 53.390625 144.867188 53.332031 145.375 53.273438 C 145.40625 53.132812 145.441406 52.988281 145.472656 52.839844 C 145.683594 52.320312 145.929688 52.074219 146.59375 51.675781 Z M 146.59375 51.675781 "/>
<path style=" stroke:none;fill-rule:nonzero;fill:rgb(63.529414%,23.137255%,37.254903%);fill-opacity:1;" d="M 129.300781 41.117188 C 127.289062 41.601562 127.289062 41.601562 126.269531 41.601562 C 126.359375 41.761719 126.460938 41.917969 126.5625 42.078125 C 124.9375 42.265625 123.394531 42.441406 121.710938 42.398438 C 122.90625 41.980469 124.164062 41.757812 125.503906 41.492188 C 125.761719 41.433594 126.03125 41.382812 126.304688 41.324219 C 126.554688 41.277344 126.808594 41.226562 127.066406 41.179688 C 127.296875 41.136719 127.535156 41.082031 127.765625 41.042969 C 128.386719 40.960938 128.386719 40.960938 129.300781 41.117188 Z M 129.300781 41.117188 "/>
<path style=" stroke:none;fill-rule:nonzero;fill:rgb(60.784316%,18.431373%,53.333336%);fill-opacity:1;" d="M 142.652344 54.074219 C 143.050781 54.132812 143.445312 54.179688 143.859375 54.238281 C 142.535156 54.890625 140.277344 55.683594 138.402344 55.683594 C 138.402344 55.519531 138.402344 55.359375 138.402344 55.199219 C 138.902344 55.199219 139.398438 55.199219 139.917969 55.199219 C 139.917969 55.09375 139.917969 54.992188 139.917969 54.882812 C 140.316406 54.882812 140.71875 54.882812 141.125 54.882812 C 141.125 54.769531 141.125 54.675781 141.125 54.558594 C 141.535156 54.558594 141.929688 54.558594 142.34375 54.558594 C 142.445312 54.402344 142.546875 54.242188 142.652344 54.074219 Z M 142.652344 54.074219 "/>
<path style=" stroke:none;fill-rule:nonzero;fill:rgb(88.627452%,4.313726%,93.725491%);fill-opacity:1;" d="M 63.144531 54.074219 C 63.144531 54.179688 63.144531 54.296875 63.144531 54.402344 C 63.347656 54.449219 63.550781 54.507812 63.75 54.558594 C 62.152344 54.558594 60.550781 54.558594 58.898438 54.558594 C 59.203125 54.238281 59.203125 54.238281 59.832031 54.054688 C 61.039062 53.878906 61.910156 53.96875 63.144531 54.074219 Z M 63.144531 54.074219 "/>
<path style=" stroke:none;fill-rule:nonzero;fill:rgb(79.215688%,23.529412%,61.56863%);fill-opacity:1;" d="M 147.804688 49.605469 C 148.007812 49.699219 148.210938 49.816406 148.40625 49.921875 C 148.332031 50.242188 148.222656 50.558594 148.113281 50.878906 C 148.101562 51.144531 148.089844 51.417969 148.113281 51.675781 C 147.542969 51.636719 147.542969 51.636719 146.890625 51.519531 C 146.519531 51.1875 146.519531 51.1875 146.289062 50.878906 C 146.589844 50.828125 146.886719 50.769531 147.199219 50.71875 C 147.574219 50.164062 147.574219 50.164062 147.804688 49.605469 Z M 147.804688 49.605469 "/>
<path style=" stroke:none;fill-rule:nonzero;fill:rgb(88.235295%,10.196079%,81.568629%);fill-opacity:1;" d="M 83.175781 49.757812 C 83.074219 50.023438 82.972656 50.289062 82.871094 50.558594 C 81.875 50.617188 80.867188 50.664062 79.839844 50.71875 C 79.839844 50.617188 79.839844 50.511719 79.839844 50.394531 C 80.238281 50.347656 80.640625 50.300781 81.046875 50.242188 C 81.046875 50.136719 81.046875 50.027344 81.046875 49.921875 C 81.808594 49.804688 82.375 49.757812 83.175781 49.757812 Z M 83.175781 49.757812 "/>
<path style=" stroke:none;fill-rule:nonzero;fill:rgb(61.56863%,28.627452%,50.196081%);fill-opacity:1;" d="M 96.226562 46.394531 C 98.226562 46.394531 100.226562 46.394531 102.296875 46.394531 C 102.296875 46.453125 102.296875 46.503906 102.296875 46.5625 C 100.660156 46.773438 99.132812 46.96875 97.441406 46.878906 C 97.035156 46.726562 96.636719 46.5625 96.226562 46.394531 Z M 96.226562 46.394531 "/>
<path style=" stroke:none;fill-rule:nonzero;fill:rgb(66.274512%,66.274512%,66.274512%);fill-opacity:1;" d="M 37.363281 43.679688 C 37.558594 43.679688 37.757812 43.679688 37.964844 43.679688 C 37.964844 44.417969 37.964844 45.164062 37.964844 45.925781 C 39.367188 45.925781 40.769531 45.925781 42.214844 45.925781 C 42.214844 45.972656 42.214844 46.019531 42.214844 46.078125 C 40.707031 46.078125 39.207031 46.078125 37.660156 46.078125 C 37.589844 45.683594 37.519531 45.277344 37.449219 44.882812 C 37.375 44.453125 37.375 44.453125 37.054688 44 C 37.152344 43.890625 37.257812 43.789062 37.363281 43.679688 Z M 37.363281 43.679688 "/>
<path style=" stroke:none;fill-rule:nonzero;fill:rgb(69.01961%,18.039216%,64.705884%);fill-opacity:1;" d="M 124.9375 55.589844 C 125.296875 55.613281 125.65625 55.625 126.027344 55.636719 C 126.304688 55.652344 126.589844 55.667969 126.871094 55.683594 C 126.871094 55.789062 126.871094 55.894531 126.871094 56 C 125.367188 56 123.863281 56 122.316406 56 C 122.316406 55.894531 122.316406 55.792969 122.316406 55.683594 C 123.210938 55.445312 123.953125 55.546875 124.9375 55.589844 Z M 124.9375 55.589844 "/>
<path style=" stroke:none;fill-rule:nonzero;fill:rgb(85.09804%,9.411765%,83.529413%);fill-opacity:1;" d="M 74.675781 51.675781 C 74.175781 52.007812 73.925781 52.148438 73.117188 52.210938 C 72.765625 52.195312 72.765625 52.195312 72.410156 52.1875 C 72.167969 52.1875 71.933594 52.183594 71.691406 52.179688 C 71.476562 52.175781 71.257812 52.164062 71.039062 52.160156 C 70.734375 52.160156 70.441406 52.160156 70.128906 52.160156 C 70.882812 51.761719 71.363281 51.746094 72.410156 51.644531 C 72.699219 51.625 72.996094 51.597656 73.300781 51.5625 C 74.074219 51.519531 74.074219 51.519531 74.675781 51.675781 Z M 74.675781 51.675781 "/>
<path style=" stroke:none;fill-rule:nonzero;fill:rgb(61.56863%,11.372549%,58.431375%);fill-opacity:1;" d="M 81.046875 49.921875 C 81.046875 50.027344 81.046875 50.132812 81.046875 50.242188 C 79.742188 50.800781 78.710938 50.761719 77.105469 50.71875 C 77.410156 50.394531 77.410156 50.394531 78.082031 50.265625 C 78.355469 50.230469 78.621094 50.179688 78.914062 50.140625 C 79.179688 50.101562 79.453125 50.058594 79.730469 50.011719 C 80.445312 49.921875 80.445312 49.921875 81.046875 49.921875 Z M 81.046875 49.921875 "/>
<path style=" stroke:none;fill-rule:nonzero;fill:rgb(80.784315%,23.921569%,61.960787%);fill-opacity:1;" d="M 104.414062 46.242188 C 104.3125 46.5 104.214844 46.765625 104.109375 47.042969 C 103.417969 47.042969 102.714844 47.042969 101.988281 47.042969 C 101.886719 46.878906 101.785156 46.726562 101.679688 46.5625 C 102.632812 46.257812 103.316406 46.207031 104.414062 46.242188 Z M 104.414062 46.242188 "/>
<path style=" stroke:none;fill-rule:nonzero;fill:rgb(65.098041%,65.098041%,64.313728%);fill-opacity:1;" d="M 18.242188 27.679688 C 18.242188 27.785156 18.242188 27.886719 18.242188 27.996094 C 17.71875 28.195312 17.71875 28.195312 17.046875 28.398438 C 16.101562 28.671875 16.101562 28.671875 15.511719 29.121094 C 14.734375 29.226562 14.734375 29.226562 13.996094 29.28125 C 16.851562 27.679688 16.851562 27.679688 18.242188 27.679688 Z M 18.242188 27.679688 "/>
<path style=" stroke:none;fill-rule:nonzero;fill:rgb(53.725493%,10.980392%,47.843137%);fill-opacity:1;" d="M 85.601562 49.28125 C 85.207031 49.332031 84.800781 49.382812 84.386719 49.441406 C 84.386719 49.546875 84.386719 49.648438 84.386719 49.757812 C 83.285156 49.816406 82.1875 49.863281 81.046875 49.921875 C 81.777344 49.664062 82.363281 49.492188 83.152344 49.332031 C 83.359375 49.292969 83.5625 49.242188 83.769531 49.199219 C 84.484375 49.105469 84.910156 49.15625 85.601562 49.28125 Z M 85.601562 49.28125 "/>
<path style=" stroke:none;fill-rule:nonzero;fill:rgb(83.92157%,23.921569%,60.000002%);fill-opacity:1;" d="M 108.960938 44.800781 C 109.367188 44.855469 109.765625 44.90625 110.183594 44.960938 C 109.976562 45.273438 109.78125 45.589844 109.574219 45.925781 C 109.167969 45.867188 108.773438 45.820312 108.359375 45.761719 C 108.359375 45.601562 108.359375 45.445312 108.359375 45.277344 C 108.5625 45.277344 108.765625 45.277344 108.960938 45.277344 C 108.960938 45.117188 108.960938 44.960938 108.960938 44.800781 Z M 108.960938 44.800781 "/>
<path style=" stroke:none;fill-rule:nonzero;fill:rgb(85.882354%,14.901961%,75.686276%);fill-opacity:1;" d="M 87.726562 49.121094 C 87.726562 49.273438 87.726562 49.4375 87.726562 49.605469 C 86.800781 49.757812 86.230469 49.757812 85.296875 49.605469 C 85.296875 49.492188 85.296875 49.386719 85.296875 49.28125 C 86.191406 49.125 86.800781 49.105469 87.726562 49.121094 Z M 87.726562 49.121094 "/>
<path style=" stroke:none;fill-rule:nonzero;fill:rgb(81.176472%,27.450982%,47.843137%);fill-opacity:1;" d="M 144.464844 42.5625 C 144.769531 42.5625 145.0625 42.5625 145.375 42.5625 C 145.375 42.71875 145.375 42.878906 145.375 43.042969 C 145.683594 43.042969 145.976562 43.042969 146.289062 43.042969 C 146.289062 43.148438 146.289062 43.253906 146.289062 43.363281 C 145.585938 43.410156 144.886719 43.464844 144.167969 43.515625 C 144.269531 43.199219 144.363281 42.882812 144.464844 42.5625 Z M 144.464844 42.5625 "/>
<path style=" stroke:none;fill-rule:nonzero;fill:rgb(60.000002%,23.137255%,35.294119%);fill-opacity:1;" d="M 143.859375 41.761719 C 144.460938 41.917969 144.460938 41.917969 145.078125 42.078125 C 145.078125 42.1875 145.078125 42.292969 145.078125 42.398438 C 145.269531 42.398438 145.472656 42.398438 145.683594 42.398438 C 145.683594 42.503906 145.683594 42.609375 145.683594 42.71875 C 145.886719 42.71875 146.082031 42.71875 146.289062 42.71875 C 146.289062 42.820312 146.289062 42.929688 146.289062 43.042969 C 145.992188 43.042969 145.6875 43.042969 145.375 43.042969 C 145.375 42.882812 145.375 42.730469 145.375 42.5625 C 144.875 42.503906 144.378906 42.457031 143.859375 42.398438 C 143.859375 42.1875 143.859375 41.980469 143.859375 41.761719 Z M 143.859375 41.761719 "/>
<path style=" stroke:none;fill-rule:nonzero;fill:rgb(47.450981%,9.411765%,49.411765%);fill-opacity:1;" d="M 58.898438 54.238281 C 58.804688 54.296875 58.703125 54.347656 58.597656 54.402344 C 58.792969 54.507812 58.996094 54.613281 59.203125 54.722656 C 58.402344 54.722656 57.597656 54.722656 56.773438 54.722656 C 56.675781 54.617188 56.574219 54.507812 56.472656 54.402344 C 57.875 54.0625 57.875 54.0625 58.898438 54.238281 Z M 58.898438 54.238281 "/>
<path style=" stroke:none;fill-rule:nonzero;fill:rgb(54.901963%,54.901963%,54.901963%);fill-opacity:1;" d="M 91.371094 32.804688 C 90.914062 33.402344 90.222656 33.691406 89.25 34.074219 C 89.25 33.605469 89.25 33.605469 89.960938 33.167969 C 90.765625 32.804688 90.765625 32.804688 91.371094 32.804688 Z M 91.371094 32.804688 "/>
<path style=" stroke:none;fill-rule:nonzero;fill:rgb(56.078434%,9.019608%,54.11765%);fill-opacity:1;" d="M 70.734375 52.003906 C 70.003906 52.386719 69.722656 52.371094 68.726562 52.421875 C 68.476562 52.433594 68.230469 52.441406 67.980469 52.457031 C 67.785156 52.460938 67.597656 52.472656 67.398438 52.476562 C 68.386719 51.953125 69.398438 51.765625 70.734375 52.003906 Z M 70.734375 52.003906 "/>
<path style=" stroke:none;fill-rule:nonzero;fill:rgb(83.529413%,13.333334%,78.823531%);fill-opacity:1;" d="M 83.175781 49.757812 C 83.074219 50.023438 82.972656 50.289062 82.871094 50.558594 C 82.675781 50.558594 82.472656 50.558594 82.265625 50.558594 C 82.164062 50.453125 82.066406 50.351562 81.960938 50.242188 C 81.660156 50.136719 81.359375 50.027344 81.046875 49.921875 C 81.808594 49.804688 82.375 49.757812 83.175781 49.757812 Z M 83.175781 49.757812 "/>
</g>
</svg>
